<svg xmlns="http://www.w3.org/2000/svg" width="24" height="24" viewBox="0 0 24 24"><path fill-rule="evenodd" d="M4 7.5a4 4 0 0 1 4-4h8a4 4 0 0 1 4 4v3.245h-4.24l2.663-2.718L17.408 7l-3.723 3.8a1 1 0 0 0 0 1.4l3.723 3.8 1.015-1.031-2.663-2.714H20V15.5a4 4 0 0 1-4 4H8a4 4 0 0 1-4-4v-8Zm7.305 10.118h.878V16.49c1.563-.07 2.613-.778 3.076-1.731l-2.552-2.552a1 1 0 0 1 0-1.414l.045-.044-.33-.093-.239-.068V8.431c.384.139.645.46.7.974h1.214l1.058-1.057c-.454-1.102-1.51-1.719-2.972-1.838V5.382h-.878V6.51C9.44 6.635 8 7.665 8 9.405c0 2.12 1.729 2.576 3.172 2.958l.133.035v2.2c-.466-.154-.74-.502-.795-1.073H8.014c.068 1.796 1.426 2.784 3.291 2.951v1.142Zm1.77-3.967c0 .515-.343.89-.892.988v-1.977c.535.21.892.487.892.989Zm-2.593-4.357c0-.543.316-.85.823-.933v1.935c-.493-.223-.823-.515-.823-1.002Z" clip-rule="evenodd"/></svg>