<svg xmlns="http://www.w3.org/2000/svg" width="24" height="24" viewBox="0 0 24 24"><path fill-rule="evenodd" d="M4 4.8a.8.8 0 0 1 .8-.8h8.712a.8.8 0 0 1 .8.8v2.15a.8.8 0 0 1-.8.8H4.8a.8.8 0 0 1-.8-.8V4.8Zm5.625 5.625a.8.8 0 0 1 .8-.8h8.712a.8.8 0 0 1 .8.8v2.15a.8.8 0 0 1-.8.8h-8.712a.8.8 0 0 1-.8-.8v-2.15ZM4.8 15.25a.8.8 0 0 0-.8.8v2.15a.8.8 0 0 0 .8.8h14.337a.8.8 0 0 0 .8-.8v-2.15a.8.8 0 0 0-.8-.8H4.8ZM16.187 4.8a.8.8 0 0 1 .8-.8h2.15a.8.8 0 0 1 .8.8v2.15a.8.8 0 0 1-.8.8h-2.15a.8.8 0 0 1-.8-.8V4.8ZM4.8 9.625a.8.8 0 0 0-.8.8v2.15a.8.8 0 0 0 .8.8h2.15a.8.8 0 0 0 .8-.8v-2.15a.8.8 0 0 0-.8-.8H4.8Z" clip-rule="evenodd"/></svg>