<svg xmlns="http://www.w3.org/2000/svg" width="55" height="55" fill="none" viewBox="0 0 55 55"><path fill="url(#a)" fill-rule="evenodd" d="M32.557 14.779v12.32l-4.845-3.779-4.843 3.779v-12.32L27.712 11l4.845 3.779ZM12.843 34.917 8 38.697V26.375l4.843-3.779v12.32ZM35.147 22.01h-.001v9.136l-7.434 5.798-7.434-5.798V16.8l-4.844 3.779v12.32l.028-.023v.57L27.712 43l12.25-9.555v-.57l.028.023v-12.32l-4.843-3.779v5.21Zm7.434 12.908v-12.32l4.844 3.779v12.32l-4.844-3.779Z" clip-rule="evenodd"/><defs><linearGradient id="a" x1="27.7122" x2="27.7122" y1="-8.49787" y2="46.8085" gradientUnits="userSpaceOnUse"><stop offset="0.373822" stop-color="#B36EFD"/><stop offset="1" stop-color="#4876FB"/></linearGradient></defs></svg>