<svg xmlns="http://www.w3.org/2000/svg" width="24" height="24" viewBox="0 0 24 24"><path fill-rule="evenodd" d="m15.421 10.223 3.79-3.5v2.459l-5.706 5.749a.178.178 0 0 1-.234.017l-3.342-2.525a.178.178 0 0 0-.222.005l-3.918 3.29V14.02l4.307-5.129 4.233 1.551c.376.138.797.054 1.092-.219ZM21 5.084c0-.941-1.11-1.434-1.8-.798l-4.668 4.312-4.293-1.573a1.069 1.069 0 0 0-1.187.318l-4.798 5.714a1.087 1.087 0 0 0-.254.698v5.163C4 19.516 4.48 20 5.074 20h14.852C20.52 20 21 19.516 21 18.918V5.084Z" clip-rule="evenodd"/></svg>