<svg xmlns="http://www.w3.org/2000/svg" width="24" height="24" viewBox="0 0 24 24"><path d="M19.21 16.667v.777c0 .856-.71 1.556-1.578 1.556H6.579C5.703 19 5 18.3 5 17.444V6.556C5 5.7 5.703 5 6.579 5h11.053c.868 0 1.578.7 1.578 1.556v.777h-7.105c-.876 0-1.579.7-1.579 1.556v6.222c0 .856.703 1.556 1.58 1.556h7.104Zm-7.105-2.556a1 1 0 0 0 1 1H18a2 2 0 0 0 2-2V10.89a2 2 0 0 0-2-2h-4.895a1 1 0 0 0-1 1v4.222Zm3.158-.944A1.174 1.174 0 0 1 14.08 12c0-.646.529-1.167 1.184-1.167.655 0 1.184.521 1.184 1.167s-.529 1.167-1.184 1.167Z"/></svg>