<svg width="24" height="24" viewBox="0 0 60 60" fill="none"
  xmlns="http://www.w3.org/2000/svg">
  <path fill-rule="evenodd" clip-rule="evenodd" d="M30 55.001C16.25 55.001 5 43.751 5 29.876C5.125 16.126 16.25 4.87603 30.125 5.00103C43.875 5.12603 55 16.251 55 30.251C54.875 43.876 43.75 55.001 30 55.001Z" fill="white"/>
  <g opacity="0.6">
    <path opacity="0.6" d="M29.9766 24.1381L16.1622 30.4208L29.9766 38.5824L43.7855 30.4208L29.9766 24.1381Z" fill="#1E1E1E"/>
  </g>
  <g opacity="0.45">
    <path opacity="0.45" d="M16.1622 30.4208L29.9766 38.5824V7.5L16.1622 30.4208Z" fill="#1E1E1E"/>
  </g>
  <g opacity="0.8">
    <path opacity="0.8" d="M29.9765 7.5V38.5824L43.7855 30.4208L29.9765 7.5Z" fill="#1E1E1E"/>
  </g>
  <g opacity="0.45">
    <path opacity="0.45" d="M16.1622 33.0381L29.9766 52.4999V41.1997L16.1622 33.0381Z" fill="#1E1E1E"/>
  </g>
  <g opacity="0.8">
    <path opacity="0.8" d="M29.9765 41.1997V52.4999L43.7963 33.0381L29.9765 41.1997Z" fill="#1E1E1E"/>
  </g>
</svg>
