<svg width="24" height="24" viewBox="0 0 24 24" fill="none"
  xmlns="http://www.w3.org/2000/svg">
  <rect x="2" y="2" width="20" height="20" rx="10" fill="#B4F9BA"/>
  <path d="M9.55172 5.90729L12.0448 4.5294C12.1158 4.4902 12.2039 4.4902 12.2749 4.5294L18.8455 8.16C18.9165 8.1992 18.9601 8.27172 18.9609 8.35012L18.9697 10.8472C18.9697 10.9262 18.926 10.9994 18.8543 11.0386L16.3647 12.4145C16.2117 12.4995 16.0199 12.3936 16.0192 12.2244L16.011 9.98347C16.011 9.90507 15.9667 9.83255 15.8957 9.79335L9.55172 6.28884C9.39812 6.20391 9.39812 5.99222 9.55172 5.90729Z" fill="#010101"/>
  <path d="M7.94101 17.2179L5.44862 15.8407C5.37694 15.8015 5.33325 15.7289 5.33325 15.6498V8.38866C5.33325 8.31026 5.37694 8.23774 5.44794 8.19788L7.70345 6.94151C7.77513 6.90166 7.86319 6.90166 7.93419 6.94151L10.4238 8.31745C10.5768 8.40238 10.5774 8.61341 10.4245 8.69899L8.40113 9.826C8.33013 9.8652 8.28644 9.93772 8.28644 10.0168V17.0278C8.28644 17.1976 8.09461 17.3028 7.94101 17.2179Z" fill="#010101"/>
  <path d="M18.9696 12.8948V15.6493C18.9696 15.7283 18.9259 15.8008 18.8542 15.84L12.2836 19.4707C12.2126 19.5099 12.1253 19.5099 12.0543 19.4707L9.78988 18.2293C9.7182 18.1901 9.67383 18.1169 9.67383 18.0379V15.2867C9.67383 15.1175 9.86498 15.0116 10.0186 15.0952L12.0502 16.2092C12.1212 16.2484 12.2086 16.2477 12.2795 16.2092L18.6235 12.7034C18.7771 12.6185 18.9689 12.7243 18.9689 12.8942L18.9696 12.8948Z" fill="#010101"/>
</svg>
