<svg width="24" height="24" viewBox="0 0 24 24" fill="none" xmlns="http://www.w3.org/2000/svg">
<g clip-path="url(#clip0_4785_37101)">
<path d="M4 7.38464L12 12.0018V15.0799L6.66667 12.0018V18.158L4 16.6189V7.38464Z" fill="#488CEA"/>
<path d="M6.66669 18.158V12.0018L9.33335 13.5409V16.619L6.66669 18.158Z" fill="#5AB5EA"/>
<path d="M4 7.38463L6.66667 5.84558L14.6667 10.4627L12 12.0018L4 7.38463Z" fill="#3B6BE0"/>
<path d="M12 12.0018L14.6667 10.4628V13.5409L12 15.0799V12.0018Z" fill="#5AB5EA"/>
<path d="M14.6667 7.38464V16.6189L17.3334 18.158V8.92371L14.6667 7.38464Z" fill="#488CEA"/>
<path d="M20 7.38464L17.3333 8.92371V18.158L20 16.6189V7.38464Z" fill="#5AB5EA"/>
<path d="M17.3334 5.84558L20 7.38463L17.3334 8.92368L14.6667 7.38463L17.3334 5.84558Z" fill="#3B6BE0"/>
</g>
<defs>
<clipPath id="clip0_4785_37101">
<rect width="24" height="24" fill="white"/>
</clipPath>
</defs>
</svg>
