<svg width="24" height="24" viewBox="0 0 60 60" fill="none"
  xmlns="http://www.w3.org/2000/svg">
  <path d="M30 55C43.8543 55 55 43.8543 55 30C55 16.1458 43.8543 5 30 5C16.1458 5 5 16.1458 5 30C5 43.8543 16.1458 55 30 55Z" fill="#3DA2FF"/>
  <path d="M37.5 33.6825C37.5 30.0519 35.1492 28.8071 30.4477 28.2885C27.0895 27.8735 26.4178 27.0437 26.4178 25.5913C26.4178 24.1388 27.5373 23.2055 29.7761 23.2055C31.791 23.2055 32.9105 23.8279 33.4701 25.3839C33.5822 25.6951 33.918 25.9025 34.2538 25.9025H36.0447C36.4925 25.9025 36.8284 25.5913 36.8284 25.1765V25.0727C36.3805 22.7904 34.3656 21.027 31.791 20.8197V18.33C31.791 17.915 31.4552 17.6038 30.8956 17.5H29.2165C28.7686 17.5 28.4328 17.8112 28.3208 18.33V20.7158C24.9625 21.1309 22.8358 23.2055 22.8358 25.7989C22.8358 29.2221 25.0746 30.5705 29.7761 31.0893C32.9105 31.6079 33.918 32.2303 33.918 33.8902C33.918 35.55 32.3506 36.691 30.2239 36.691C27.3133 36.691 26.3058 35.5497 25.97 33.9937C25.8582 33.579 25.5224 33.3713 25.1866 33.3713H23.2834C22.8358 33.3713 22.5 33.6825 22.5 34.0975V34.2014C22.9476 36.7945 24.7387 38.6618 28.4328 39.1806V41.6702C28.4328 42.085 28.7686 42.3962 29.3282 42.5H31.0073C31.4552 42.5 31.791 42.1888 31.903 41.6702V39.1806C35.2613 38.6618 37.5 36.4833 37.5 33.6825Z" fill="white"/>
  <path d="M24.3487 46.185C15.7054 42.9481 11.2729 32.8903 14.4866 23.9883C16.1488 19.1328 19.8055 15.4335 24.3487 13.6993C24.792 13.4682 25.0135 13.1214 25.0135 12.5432V10.9248C25.0135 10.4622 24.792 10.1154 24.3487 10C24.2378 10 24.0162 10 23.9053 10.1154C13.3784 13.5836 7.61618 25.2602 10.9405 36.2428C12.9351 42.7167 17.7 47.6879 23.9053 49.7689C24.3487 50 24.792 49.7689 24.9026 49.3064C25.0135 49.1909 25.0135 49.0752 25.0135 48.8441V47.2254C25.0135 46.8786 24.6811 46.4164 24.3487 46.185ZM36.0947 10.1154C35.6513 9.8843 35.208 10.1154 35.0974 10.5779C34.9865 10.6936 34.9865 10.8091 34.9865 11.0405V12.6589C34.9865 13.1214 35.3189 13.5836 35.6513 13.815C44.2946 17.0519 48.7271 27.1097 45.5134 36.0117C43.8512 40.8672 40.1945 44.5665 35.6513 46.3007C35.208 46.5318 34.9865 46.8786 34.9865 47.4568V49.0752C34.9865 49.5378 35.208 49.8846 35.6513 50C35.7622 50 35.9838 50 36.0947 49.8846C46.6216 46.4164 52.3838 34.7398 49.0595 23.7572C47.0649 17.1676 42.1891 12.1964 36.0947 10.1154Z" fill="white"/>
</svg>
