<svg width="24" height="24" viewBox="0 0 60 60" fill="none"
  xmlns="http://www.w3.org/2000/svg">
  <g clip-path="url(#clip0_1314_11024)">
    <path d="M30 5C34.9445 5 39.778 6.46622 43.8893 9.21326C48.0005 11.9603 51.2048 15.8648 53.097 20.4329C54.9892 25.0011 55.4843 30.0277 54.5196 34.8773C53.555 39.7268 51.174 44.1814 47.6777 47.6777C44.1814 51.174 39.7268 53.555 34.8773 54.5196C30.0277 55.4843 25.0011 54.9892 20.4329 53.097C15.8648 51.2048 11.9603 48.0005 9.21326 43.8893C6.46622 39.778 5 34.9445 5 30C5 23.3696 7.63392 17.0107 12.3223 12.3223C17.0107 7.63392 23.3696 5 30 5V5Z" fill="#F5AC37"/>
    <path d="M31.0235 31.3294H38.9779C39.147 31.3294 39.2279 31.3294 39.2397 31.1294C39.3047 30.4 39.3047 29.6662 39.2397 28.9368C39.2397 28.7897 39.1617 28.7367 38.9911 28.7367H23.1573C22.9617 28.7367 22.9088 28.7956 22.9088 28.9603V31.0588C22.9088 31.3294 22.9088 31.3294 23.222 31.3294H31.0235ZM38.3514 26.2823C38.3626 26.2563 38.3684 26.2283 38.3684 26.2C38.3684 26.1717 38.3626 26.1437 38.3514 26.1176C38.2179 25.8554 38.0593 25.6067 37.8779 25.375C37.5996 24.9721 37.2742 24.6039 36.9088 24.2779C36.7322 24.0756 36.53 23.8971 36.3073 23.747C35.148 22.8659 33.8074 22.2536 32.3823 21.9544C31.6505 21.807 30.9053 21.7361 30.1588 21.7426H23.1309C22.9353 21.7426 22.9088 21.8132 22.9088 21.9662V26.1529C22.9088 26.3294 22.9088 26.3765 23.1573 26.3765H38.2544C38.2544 26.3765 38.3853 26.3529 38.4117 26.2823H38.347H38.3514ZM38.3514 33.7823C38.1289 33.7602 37.9048 33.7602 37.6823 33.7823H23.1706C22.975 33.7823 22.9088 33.7823 22.9088 34.0191V38.1117C22.9088 38.3 22.9088 38.3485 23.1706 38.3485H29.8691C30.1884 38.3702 30.5092 38.3505 30.8235 38.2897C31.7935 38.2287 32.751 38.0382 33.6706 37.7235C34.0007 37.6201 34.3202 37.4857 34.625 37.322H34.7161C36.2466 36.6224 37.522 35.4646 38.3661 34.0088C38.3661 34.0088 38.4573 33.8309 38.3544 33.7838L38.3514 33.7823ZM20.2823 40.4691V33.9471C20.2823 33.8 20.2823 33.7706 20.0735 33.7706H17.2308C17.0735 33.7706 17.0088 33.7706 17.0088 33.5823V31.3412H20.0441C20.2132 31.3412 20.2794 31.3412 20.2794 31.1412V28.9235C20.2794 28.7765 20.2794 28.747 20.0706 28.747H17.2308C17.0735 28.747 17.0088 28.7471 17.0088 28.5588V26.4838C17.0088 26.3544 17.0088 26.3191 17.2176 26.3191H20.0308C20.2264 26.3191 20.2794 26.3191 20.2794 26.0956V19.7397C20.2794 19.5515 20.2794 19.5029 20.5411 19.5029H30.3529C31.0631 19.5279 31.7709 19.5986 32.472 19.7147C33.901 19.9511 35.2833 20.4127 36.5676 21.0823C37.398 21.5209 38.1715 22.0597 38.8706 22.6868C39.3834 23.1661 39.852 23.6908 40.2706 24.2544C40.6811 24.8148 41.0265 25.4202 41.3 26.0588C41.3216 26.1421 41.374 26.214 41.4466 26.2601C41.5192 26.3063 41.6066 26.3231 41.6911 26.3073H44.0323C44.3264 26.3073 44.3264 26.3073 44.3456 26.5676V28.5015C44.3456 28.6897 44.2676 28.7382 44.0514 28.7382H42.2456C42.0632 28.7382 42.0103 28.7382 42.0235 28.95C42.0951 29.6673 42.0951 30.39 42.0235 31.1073C42.0235 31.3073 42.0235 31.3309 42.2735 31.3309H44.3323C44.4235 31.4367 44.3323 31.5426 44.3323 31.65C44.3455 31.7869 44.3455 31.9248 44.3323 32.0618V33.4897C44.3323 33.6897 44.2676 33.75 44.0706 33.75H41.6029C41.5232 33.7335 41.4402 33.7473 41.3701 33.7886C41.3 33.8299 41.2477 33.8958 41.2235 33.9735C40.6133 35.3814 39.67 36.6199 38.475 37.5823C38.0274 37.9457 37.56 38.284 37.075 38.5956C36.5514 38.8676 36.0456 39.15 35.5044 39.3735C34.5088 39.7753 33.4737 40.071 32.4161 40.2559C31.4039 40.4183 30.3795 40.4931 29.3544 40.4794H20.2764V40.4676L20.2823 40.4691Z" fill="#FEFEFD"/>
  </g>
  <defs>
    <clipPath id="clip0_1314_11024">
      <rect width="50" height="50" fill="white" transform="translate(5 5)"/>
    </clipPath>
  </defs>
</svg>
