<svg width="24" height="24" viewBox="0 0 24 24" fill="none"
  xmlns="http://www.w3.org/2000/svg">
  <path d="M12 22C17.5417 22 22 17.5417 22 12C22 6.4583 17.5417 2 12 2C6.4583 2 2 6.4583 2 12C2 17.5417 6.4583 22 12 22Z" fill="url(#paint0_linear_5003_42518)"/>
  <path fill-rule="evenodd" clip-rule="evenodd" d="M12.9508 7.2227C11.9378 7.63982 10.7328 8.45958 9.5962 9.59614C8.45964 10.7327 7.63989 11.9377 7.22276 12.9507C7.01374 13.4583 6.91563 13.894 6.91308 14.2352C6.91053 14.574 7.00041 14.7785 7.12133 14.8994C7.24225 15.0204 7.44676 15.1102 7.78553 15.1077C8.12677 15.1051 8.56243 15.007 9.07004 14.798C10.0831 14.3809 11.2881 13.5611 12.4246 12.4246C13.5612 11.288 14.3809 10.083 14.7981 9.06998C15.0071 8.56237 15.1052 8.12671 15.1078 7.78547C15.1103 7.4467 15.0204 7.24218 14.8995 7.12127C14.7786 7.00035 14.5741 6.91047 14.2353 6.91301C13.8941 6.91557 13.4584 7.01368 12.9508 7.2227ZM14.2278 5.91304C14.7414 5.90919 15.2394 6.04692 15.6066 6.41416C15.6434 6.45094 15.6712 6.47586 15.7021 6.50348C15.7404 6.53775 15.7833 6.57615 15.8536 6.64648C16.1047 6.89765 16.4597 7.25625 16.7823 7.58258L16.9442 7.74626C17.2002 8.00524 17.4175 8.2251 17.5208 8.32839C17.8881 8.69563 18.0258 9.19361 18.022 9.7072C18.0181 10.2183 17.8758 10.7849 17.637 11.365C17.1584 12.5273 16.2526 13.8393 15.046 15.0459C13.8394 16.2525 12.5273 17.1583 11.365 17.6369C10.785 17.8758 10.2184 18.0181 9.70726 18.0219C9.19367 18.0258 8.6957 17.888 8.32846 17.5208C8.24589 17.4382 8.14396 17.3379 8.0068 17.2029L7.77061 16.9703C7.50585 16.7093 7.14741 16.3545 6.64647 15.8536V15.8359C6.58339 15.7956 6.53765 15.7434 6.4896 15.6887L6.48959 15.6887L6.48959 15.6887C6.46583 15.6616 6.4415 15.6338 6.41422 15.6066C6.04698 15.2393 5.90925 14.7413 5.9131 14.2277C5.91694 13.7166 6.05923 13.15 6.29808 12.57C6.77668 11.4077 7.68251 10.0956 8.8891 8.88904C10.0957 7.68245 11.4077 6.77662 12.57 6.29802C13.1501 6.05917 13.7167 5.91688 14.2278 5.91304ZM15.9626 8.75556C16.0067 8.5943 16.0415 8.43555 16.0659 8.2803L16.0713 8.28569L16.2325 8.44879C16.4882 8.70747 16.7083 8.93002 16.8137 9.0355C16.9347 9.15642 17.0245 9.36093 17.022 9.6997C17.0217 9.73573 17.0204 9.77281 17.018 9.81092L15.9626 8.75556ZM15.5761 9.78327C15.4668 10.0161 15.3415 10.2537 15.2013 10.4942L16.3814 11.6743C16.5104 11.4369 16.621 11.206 16.7123 10.9842C16.7187 10.9688 16.7249 10.9535 16.731 10.9382L15.5761 9.78327ZM14.6453 11.3524L15.8416 12.5487C15.4342 13.1396 14.9293 13.7484 14.3389 14.3388C13.9388 14.7389 13.5302 15.0997 13.1246 15.4175L11.9222 14.2152C12.3307 13.8892 12.7369 13.5265 13.1317 13.1317C13.71 12.5535 14.2191 11.951 14.6453 11.3524ZM11.1078 14.815C10.7735 15.0408 10.4417 15.24 10.1171 15.4101L11.2859 16.5788C11.6107 16.4255 11.9515 16.2342 12.3005 16.0077L11.1078 14.815ZM10.2453 16.9525L9.14642 15.8536L9.1684 15.8316C8.86388 15.9409 8.56507 16.0212 8.27821 16.0662L8.47271 16.2582L8.70411 16.4861L8.70495 16.487C8.84425 16.624 8.95025 16.7284 9.03556 16.8137C9.15648 16.9346 9.36099 17.0245 9.69976 17.0219C9.86126 17.0207 10.0439 16.9981 10.2453 16.9525Z" fill="white"/>
  <defs>
    <linearGradient id="paint0_linear_5003_42518" x1="11.9998" y1="-10.1862" x2="11.9998" y2="24.3803" gradientUnits="userSpaceOnUse">
      <stop offset="0.203123" stop-color="#B36EFD"/>
      <stop offset="1" stop-color="#4876FB"/>
    </linearGradient>
  </defs>
</svg>
