<svg width="24" height="24" viewBox="0 0 24 24" fill="none" xmlns="http://www.w3.org/2000/svg">
<path d="M6.94572 22.7253C12.5204 22.7253 12.5204 22.6421 13.466 22.3618C14.7011 21.9952 9.97803 18.7256 6.94572 18.7256C3.9134 18.7256 1.45496 19.6211 1.45496 20.7256C1.45496 21.83 3.91242 22.7253 6.94572 22.7253Z" fill="black"/>
<path d="M19.6047 5.71896L19.8611 5.99524L19.6373 6.29808C12.3664 16.1291 8.17782 20.58 6.40064 19.9833C5.31849 19.6195 4.2329 18.526 3.14714 16.9381C2.7656 16.3798 2.40718 15.792 2.08138 15.2073C1.86446 14.8177 1.68082 14.4626 1.5854 14.2625C1.48587 14.0672 1.41413 13.8588 1.37225 13.6436L1.36733 13.6187C1.35093 13.5309 1.34437 13.5039 1.33158 13.4547C0.832518 11.574 0.898015 9.58799 1.51991 7.74425C2.14181 5.90051 3.2926 4.28059 4.82884 3.08639C6.36508 1.8922 8.21882 1.17656 10.159 1.02867C12.0992 0.880792 14.0399 1.30721 15.7394 2.25477L15.7771 2.27838C16.9759 3.11328 18.2518 4.26019 19.6047 5.71913M15.2761 3.03736C13.7318 2.18264 11.9704 1.80056 10.2107 1.93861C8.4511 2.07666 6.77083 2.72875 5.37872 3.81384C3.98662 4.89894 2.94407 6.36919 2.38064 8.04189C1.8172 9.71459 1.75773 11.516 2.2096 13.2222C2.22928 13.2963 2.2383 13.338 2.25879 13.4454L2.26289 13.4675C2.29068 13.608 2.33878 13.7438 2.4057 13.8705C2.49276 14.0532 2.66804 14.3911 2.87529 14.7639C3.18862 15.326 3.53278 15.8907 3.89726 16.4244C4.87841 17.8589 5.85087 18.8389 6.68987 19.1207C7.80924 19.4967 12.0224 15.0368 18.6807 6.06148C17.6493 4.94268 16.5087 3.92962 15.2761 3.03736Z" fill="black"/>
<path d="M15.2762 3.03725C13.7319 2.18245 11.9704 1.80032 10.2108 1.93835C8.45107 2.07638 6.77074 2.72848 5.3786 3.8136C3.98646 4.89873 2.94389 6.36903 2.38047 8.04179C1.81705 9.71455 1.75762 11.516 2.20957 13.2222C2.22924 13.2964 2.23826 13.338 2.25876 13.4454L2.26286 13.4675C2.29048 13.6083 2.33848 13.7443 2.40534 13.8712C2.4924 14.0539 2.66768 14.3918 2.87493 14.7646C3.18826 15.3267 3.53242 15.8914 3.8969 16.4251C4.87805 17.8596 5.85051 18.8396 6.68951 19.1214C7.80953 19.4979 12.0222 15.0381 18.6809 6.06218C17.6495 4.9431 16.5089 3.92976 15.2762 3.03725Z" fill="#EC1C79"/>
<path d="M12.7265 22.6343C10.7668 22.6343 8.85107 22.0532 7.22164 20.9644C5.59222 19.8757 4.32223 18.3282 3.57229 16.5177C2.82235 14.7072 2.62613 12.7149 3.00845 10.7929C3.39076 8.87083 4.33445 7.10533 5.72016 5.71961C7.10587 4.3339 8.87138 3.39021 10.7934 3.0079C12.7155 2.62558 14.7077 2.8218 16.5182 3.57174C18.3288 4.32168 19.8762 5.59167 20.965 7.2211C22.0537 8.85052 22.6348 10.7662 22.6348 12.7259C22.6349 14.0271 22.3786 15.3156 21.8807 16.5177C21.3827 17.7199 20.6529 18.8122 19.7328 19.7322C18.8127 20.6523 17.7204 21.3822 16.5183 21.8801C15.3161 22.378 14.0276 22.6343 12.7265 22.6343ZM12.7265 21.7253C14.5063 21.7253 16.2462 21.1974 17.7261 20.2086C19.206 19.2197 20.3594 17.8142 21.0405 16.1698C21.7216 14.5254 21.8998 12.716 21.5526 10.9703C21.2053 9.22464 20.3482 7.62115 19.0896 6.3626C17.8311 5.10405 16.2276 4.24697 14.4819 3.89975C12.7362 3.55253 10.9268 3.73075 9.2824 4.41188C7.63801 5.09302 6.23254 6.24647 5.2437 7.72638C4.25486 9.2063 3.72706 10.9462 3.72706 12.7261C3.72711 15.1128 4.67525 17.4018 6.36292 19.0894C8.0506 20.7771 10.3396 21.7253 12.7263 21.7253" fill="black"/>
<path d="M12.7266 21.7253C14.5065 21.7253 16.2464 21.1975 17.7263 20.2086C19.2062 19.2198 20.3597 17.8143 21.0408 16.1699C21.722 14.5255 21.9002 12.7161 21.553 10.9704C21.2057 9.22476 20.3487 7.62125 19.0901 6.36268C17.8316 5.10411 16.2281 4.247 14.4824 3.89975C12.7367 3.55249 10.9273 3.73068 9.2829 4.41179C7.63851 5.09289 6.23301 6.24632 5.24414 7.72621C4.25527 9.20611 3.72745 10.946 3.72742 12.7259C3.72746 15.1126 4.6756 17.4016 6.36328 19.0892C8.05095 20.7769 10.3399 21.7251 12.7266 21.7251" fill="white"/>
<path fill-rule="evenodd" clip-rule="evenodd" d="M5.99502 14.5693L4.80383 10.9805H5.84762L6.4687 13.0422L7.15554 10.9703H8.00536L8.69252 13.0422L9.31361 10.9805H10.3371L9.14588 14.5693H8.28573L7.56807 12.518L6.85516 14.5693H5.99502ZM10.7291 14.5441V10.9805H13.5952V11.8206H11.7068V12.3602H13.4171V13.1396H11.7068V13.7044H13.6204V14.5445L10.7291 14.5441ZM14.9954 14.5441V11.8459H13.9265V10.9805H17.0515V11.8459H15.9826V14.5439L14.9954 14.5441ZM17.4845 14.5441V10.9805H18.4722V12.314H19.7396V10.9805H20.7277V14.5439H19.7396V13.1899H18.4722V14.5439L17.4845 14.5441Z" fill="black"/>
<path d="M1.59087 9.90864C1.47009 9.84826 1.37824 9.74237 1.33553 9.61427C1.29282 9.48617 1.30274 9.34635 1.36312 9.22557C1.4235 9.10479 1.52939 9.01294 1.65749 8.97023C1.78559 8.92752 1.92541 8.93745 2.04619 8.99783L3.50037 9.72533C3.56015 9.7552 3.61347 9.79656 3.65726 9.84704C3.70106 9.89752 3.73449 9.95613 3.75564 10.0195C3.77679 10.0829 3.78524 10.1499 3.78052 10.2165C3.7758 10.2832 3.75799 10.3483 3.72811 10.4081C3.69824 10.4678 3.65688 10.5212 3.6064 10.565C3.55592 10.6088 3.49731 10.6422 3.43391 10.6633C3.37051 10.6845 3.30357 10.6929 3.2369 10.6882C3.17024 10.6835 3.10516 10.6657 3.04537 10.6358L1.59087 9.90864Z" fill="black"/>
<path d="M1.42369 12.3204C1.36301 12.2924 1.30843 12.2527 1.26307 12.2037C1.21771 12.1546 1.18247 12.097 1.15935 12.0343C1.13623 11.9716 1.12569 11.905 1.12833 11.8382C1.13096 11.7714 1.14673 11.7058 1.17472 11.6451C1.20271 11.5844 1.24238 11.5299 1.29146 11.4845C1.34055 11.4392 1.39809 11.4039 1.46079 11.3808C1.5235 11.3577 1.59014 11.3471 1.65692 11.3498C1.7237 11.3524 1.78931 11.3682 1.85 11.3962L3.3045 12.0671C3.42544 12.1247 3.51883 12.2276 3.56441 12.3535C3.60999 12.4795 3.6041 12.6183 3.54802 12.7399C3.49194 12.8616 3.39018 12.9562 3.2648 13.0033C3.13942 13.0504 3.00052 13.0463 2.8782 12.9917L1.42369 12.3204Z" fill="black"/>
</svg>
