<svg width="24" height="24" viewBox="0 0 24 24" fill="none"
  xmlns="http://www.w3.org/2000/svg">
  <g clip-path="url(#clip0_24_9)">
    <path d="M16.8 0H7.2C3.22355 0 0 3.22355 0 7.2V16.8C0 20.7765 3.22355 24 7.2 24H16.8C20.7765 24 24 20.7765 24 16.8V7.2C24 3.22355 20.7765 0 16.8 0Z" fill="#2056E3"/>
    <path d="M12 20.4C16.6392 20.4 20.4 16.6392 20.4 12C20.4 7.3608 16.6392 3.59999 12 3.59999C7.36081 3.59999 3.60001 7.3608 3.60001 12C3.60001 16.6392 7.36081 20.4 12 20.4Z" fill="white"/>
    <g clip-path="url(#clip1_24_9)">
      <path fill-rule="evenodd" clip-rule="evenodd" d="M2.39999 12C2.39999 6.69779 6.69779 2.39999 12 2.39999C17.3022 2.39999 21.6 6.69779 21.6 12C21.6 17.3022 17.3022 21.6 12 21.6C6.69779 21.6 2.39999 17.3022 2.39999 12Z" fill="#2056E3"/>
      <path fill-rule="evenodd" clip-rule="evenodd" d="M12 5.59979L10.815 6.27599L7.58521 8.12399L6.40021 8.79959V15.1992L7.58521 15.8748L10.8444 17.724L12.0294 18.3996L13.215 17.724L16.4148 15.8748L17.5998 15.1992V8.80019L16.4148 8.12399L13.185 6.27599L12 5.59979ZM8.77021 13.8498V10.1502L12 8.30099L15.2298 10.1502V13.8492L12 15.6996L8.77021 13.8498Z" fill="white"/>
    </g>
  </g>
  <defs>
    <clipPath id="clip0_24_9">
      <rect width="24" height="24" rx="12" fill="white"/>
    </clipPath>
    <clipPath id="clip1_24_9">
      <rect width="19.2" height="19.2" fill="white" transform="translate(2.39999 2.39999)"/>
    </clipPath>
  </defs>
</svg>
