<svg width="24" height="24" viewBox="0 0 60 60" fill="none"
  xmlns="http://www.w3.org/2000/svg">
  <g clip-path="url(#clip0_1314_11004)">
    <path d="M30 55C34.9445 55 39.778 53.5338 43.8893 50.7868C48.0005 48.0397 51.2048 44.1353 53.097 39.5671C54.9892 34.9989 55.4843 29.9723 54.5196 25.1228C53.555 20.2732 51.174 15.8187 47.6777 12.3223C44.1814 8.82603 39.7268 6.44501 34.8773 5.48038C30.0277 4.51575 25.0011 5.01083 20.4329 6.90302C15.8648 8.79521 11.9603 11.9995 9.21327 16.1108C6.46624 20.222 5.00001 25.0555 5.00001 30C4.99206 33.2853 5.63328 36.5398 6.88683 39.5765C8.14038 42.6132 9.98156 45.3724 12.3046 47.6954C14.6277 50.0185 17.3868 51.8596 20.4235 53.1132C23.4603 54.3667 26.7147 55.008 30 55Z" fill="#50AF95"/>
    <path fill-rule="evenodd" clip-rule="evenodd" d="M33.2353 32.5147C33.0544 32.5279 32.1206 32.5838 30.0382 32.5838C28.3809 32.5838 27.2059 32.5338 26.7926 32.5147C20.3897 32.2324 15.6162 31.1191 15.6162 29.7838C15.6162 28.4485 20.3956 27.3368 26.7926 27.05V31.4044C27.2118 31.4338 28.4103 31.5059 30.0676 31.5059C32.0559 31.5059 33.0515 31.4235 33.2309 31.4059V27.0529C39.6206 27.3382 44.3882 28.4515 44.3882 29.7838C44.3882 31.1162 39.6206 32.2294 33.2309 32.5132L33.2353 32.5147ZM33.2353 26.6029V22.7059H42.1515V16.7647H17.8765V22.7059H26.7912V26.6015C19.5456 26.9338 14.0956 28.3662 14.0956 30.0897C14.0956 31.8132 19.5441 33.2441 26.7912 33.5779V46.0632H33.2338V33.5735C40.4632 33.2412 45.9029 31.8088 45.9029 30.0882C45.9029 28.3677 40.4618 26.9353 33.2338 26.6015L33.2353 26.6029Z" fill="white"/>
  </g>
  <defs>
    <clipPath id="clip0_1314_11004">
      <rect width="50" height="50" fill="white" transform="translate(5 5)"/>
    </clipPath>
  </defs>
</svg>
