<svg width="24" height="24" viewBox="0 0 24 24" fill="none" xmlns="http://www.w3.org/2000/svg">
<path d="M12 22C17.5417 22 22 17.5417 22 12C22 6.4583 17.5417 2 12 2C6.4583 2 2 6.4583 2 12C2 17.5417 6.4583 22 12 22Z" fill="url(#paint0_linear_1230_10927)"/>
<path d="M9.4997 18.881H10.9095L11.1372 17.6068C13.5393 17.4224 15.1172 16.2079 15.4425 14.2721C15.7407 12.499 14.7051 11.4091 12.6012 10.932L12.3356 10.8669L12.7476 8.56244C13.2682 8.7468 13.5068 9.15347 13.4688 9.73907H16.039C16.3372 7.85754 15.231 6.53993 13.1543 6.28508L13.3821 5H11.9723L11.7445 6.26339C9.4997 6.46944 7.75915 7.78705 7.44465 9.68485C7.17354 11.3712 8.19293 12.3147 10.0311 12.7593L10.5679 12.8894L10.1287 15.3403C9.36956 15.1614 8.95205 14.6354 9.04965 13.7949H6.48491C6.12162 16.1374 7.41212 17.3899 9.72743 17.6014L9.4997 18.881ZM11.5385 15.3349L11.9126 13.2527C12.5362 13.4913 12.8019 13.8004 12.7205 14.2667C12.6392 14.7764 12.2163 15.1722 11.5385 15.3349ZM10.9908 10.509C10.4486 10.2867 10.1558 9.97765 10.2588 9.50049C10.3402 9.02876 10.7089 8.66546 11.3433 8.51906L10.9908 10.509Z" fill="white"/>
<path fill-rule="evenodd" clip-rule="evenodd" d="M11.5469 19L11.7684 17.769C10.7455 17.6349 9.90986 17.2799 9.36368 16.6582C8.77131 15.9839 8.55435 15.0362 8.75282 13.8322L8.78294 13.6496H11.874L11.8429 13.8952C11.8021 14.2174 11.8525 14.4584 11.9607 14.6337C12.0337 14.752 12.1403 14.8522 12.2853 14.9297L12.5426 13.5067L12.2221 13.4358C11.3259 13.2298 10.5962 12.8933 10.1254 12.3726C9.64559 11.842 9.45898 11.1474 9.59862 10.2881C9.9087 8.39609 11.5904 7.11545 13.747 6.86535L13.9617 5.67419H15.8348L15.6116 6.91498C16.5227 7.07879 17.2436 7.46139 17.7114 8.03831C18.2194 8.66479 18.4055 9.49166 18.2461 10.4398L18.2155 10.6218H15.1125L15.1353 10.383C15.1528 10.1987 15.1303 10.0542 15.0797 9.94365C15.0758 9.93498 15.0716 9.92642 15.0672 9.91799L14.8547 11.0766C15.9767 11.3237 16.7721 11.738 17.2488 12.3255C17.7312 12.9201 17.8608 13.6581 17.7225 14.4876C17.5576 15.4695 17.0783 16.2596 16.3402 16.8241C15.6414 17.3585 14.7216 17.6828 13.6392 17.7911L13.4198 19H11.5469ZM13.4542 17.5886C15.7048 17.4123 17.1952 16.3097 17.5074 14.4518C17.7692 12.8809 17.0039 11.7732 14.8086 11.2898L14.6022 11.2445L14.9244 9.4873C14.9997 9.52723 15.0649 9.5744 15.1203 9.6284C15.2653 9.76977 15.3427 9.95793 15.3569 10.1855C15.3612 10.2547 15.3597 10.3275 15.3524 10.4037H18.031C18.3218 8.67332 17.3902 7.45622 15.573 7.12966C15.5024 7.11698 15.4306 7.10566 15.3575 7.09569C15.3575 7.09569 15.3575 7.09569 15.3575 7.09569L15.5739 5.89233H14.144L13.9325 7.06548C11.7625 7.26184 10.111 8.51051 9.81393 10.3231C9.55211 11.9343 10.5188 12.8205 12.271 13.2233L12.7946 13.3391L12.4523 15.2322C12.3786 15.2099 12.3094 15.1835 12.2449 15.1533C11.828 14.9578 11.6042 14.5981 11.6108 14.0859C11.6118 14.016 11.6169 13.9433 11.6265 13.8677H8.96805C8.59817 16.1113 9.74306 17.287 11.807 17.5541C11.8784 17.5633 11.9508 17.5714 12.0243 17.5785L11.8078 18.7819H13.2377L13.4542 17.5886ZM14.6475 14.4518C14.6884 14.2062 14.6063 14.0072 14.355 13.8359C14.2972 13.7964 14.2304 13.7585 14.1541 13.7217L13.8822 15.2171C13.9692 15.1888 14.0492 15.1555 14.122 15.1177C14.4242 14.9611 14.6029 14.7277 14.6475 14.4518ZM14.1747 14.8276C14.3274 14.7096 14.408 14.5661 14.4322 14.417C14.4499 14.3103 14.4338 14.2334 14.3901 14.1665C14.3716 14.1383 14.346 14.1084 14.3111 14.0773L14.1747 14.8276ZM12.7745 10.1217C12.7093 10.3823 12.7957 10.5902 13.0414 10.7587C13.0996 10.7986 13.1666 10.8363 13.2427 10.8719L13.5046 9.41177C13.4174 9.43554 13.3385 9.46456 13.2674 9.49838C12.9772 9.63653 12.819 9.85475 12.7745 10.1217ZM13.2166 9.78199C13.0811 9.8851 13.0134 10.0152 12.9897 10.1576L12.9882 10.1662L12.9861 10.1746C12.9578 10.2877 12.973 10.3662 13.0143 10.4323C13.031 10.459 13.054 10.487 13.085 10.5157L13.2166 9.78199Z" fill="url(#paint1_linear_1230_10927)"/>
<defs>
<linearGradient id="paint0_linear_1230_10927" x1="11.9998" y1="-10.1862" x2="11.9998" y2="24.3803" gradientUnits="userSpaceOnUse">
<stop offset="0.203123" stop-color="#B36EFD"/>
<stop offset="1" stop-color="#4876FB"/>
</linearGradient>
<linearGradient id="paint1_linear_1230_10927" x1="17.3308" y1="10.4037" x2="8.60553" y2="9.85834" gradientUnits="userSpaceOnUse">
<stop stop-color="white"/>
<stop offset="1" stop-color="white" stop-opacity="0"/>
</linearGradient>
</defs>
</svg>
