<svg width="24" height="24" viewBox="0 0 60 60" fill="none"
  xmlns="http://www.w3.org/2000/svg">
  <g clip-path="url(#clip0_1314_11040)">
    <path d="M45.7697 15.4933L44.3969 16.8662C47.6727 20.4486 49.4894 25.1273 49.4894 29.9817C49.4894 34.8361 47.6727 39.5148 44.3969 43.0972L45.7697 44.4701C49.4129 40.5184 51.4355 35.3405 51.4355 29.9657C51.4355 24.5909 49.4129 19.413 45.7697 15.4613V15.4933Z" fill="#5A5564"/>
    <path d="M16.8982 15.6123C20.4806 12.3364 25.1593 10.5197 30.0137 10.5197C34.8681 10.5197 39.5468 12.3364 43.1292 15.6123L44.5021 14.2394C40.5504 10.5962 35.3725 8.57361 29.9977 8.57361C24.6229 8.57361 19.445 10.5962 15.4933 14.2394L16.8982 15.6123Z" fill="#5A5564"/>
    <path d="M15.6123 43.111C12.3403 39.5293 10.526 34.8535 10.526 30.0023C10.526 25.1511 12.3403 20.4753 15.6123 16.8937L14.2394 15.5208C10.5963 19.4725 8.57365 24.6504 8.57365 30.0252C8.57365 35.4 10.5963 40.5779 14.2394 44.5296L15.6123 43.111Z" fill="#5A5564"/>
    <path d="M43.1109 44.3786C39.5285 47.6545 34.8498 49.4712 29.9954 49.4712C25.141 49.4712 20.4623 47.6545 16.8799 44.3786L15.507 45.7515C19.4587 49.3946 24.6367 51.4173 30.0114 51.4173C35.3862 51.4173 40.5642 49.3946 44.5158 45.7515L43.1109 44.3786Z" fill="#5A5564"/>
    <path d="M38.6674 25.4192C38.3928 22.5544 35.9217 21.5934 32.7961 21.3006V17.3558H30.3798V21.2273C29.7437 21.2273 29.0939 21.2273 28.4487 21.2273V17.3558H26.0507V21.328H21.1496V23.9136C21.1496 23.9136 22.9343 23.8816 22.9068 23.9136C23.2286 23.8782 23.5516 23.9691 23.8077 24.1671C24.0638 24.3652 24.233 24.6549 24.2797 24.9753V35.8484C24.2728 35.9614 24.2434 36.0719 24.1931 36.1733C24.1428 36.2747 24.0726 36.3649 23.9868 36.4388C23.9026 36.514 23.8041 36.5714 23.6971 36.6076C23.5902 36.6438 23.477 36.6579 23.3645 36.6493C23.3965 36.6767 21.6072 36.6493 21.6072 36.6493L21.1496 39.5369H26.0049V43.5731H28.4212V39.5964H30.3524V43.5548H32.7732V39.5643C36.8552 39.3172 39.7016 38.3104 40.0586 34.4893C40.3469 31.414 38.9008 30.0412 36.5898 29.4874C37.9947 28.7964 38.8642 27.5151 38.6674 25.4192ZM35.281 34.0133C35.281 37.0154 30.1373 36.6721 28.499 36.6721V31.3454C30.1373 31.35 35.281 30.8786 35.281 34.0133ZM34.1598 26.5083C34.1598 29.2541 29.8673 28.92 28.5036 28.92V24.0783C29.8673 24.0783 34.1598 23.6482 34.1598 26.5083Z" fill="#F09242"/>
    <path d="M29.9954 55C25.0513 54.9991 20.2184 53.5322 16.1079 50.7848C11.9974 48.0375 8.79375 44.1329 6.90212 39.565C5.0105 34.997 4.5158 29.9707 5.48058 25.1216C6.44536 20.2725 8.82628 15.8184 12.3223 12.3223C15.8184 8.8263 20.2725 6.44538 25.1216 5.4806C29.9707 4.51583 34.997 5.01052 39.565 6.90215C44.1329 8.79377 48.0374 11.9974 50.7848 16.1079C53.5322 20.2184 54.9991 25.0513 55 29.9954C55.0006 33.2793 54.3542 36.531 53.0979 39.565C51.8415 42.5989 49.9997 45.3557 47.6777 47.6777C45.3557 49.9997 42.5989 51.8415 39.565 53.0979C36.531 54.3543 33.2792 55.0006 29.9954 55ZM29.9954 6.94949C25.4403 6.95311 20.9886 8.30704 17.2028 10.8401C13.417 13.3733 10.4672 16.9718 8.72612 21.181C6.98506 25.3903 6.53093 30.0211 7.42113 34.4884C8.31134 38.9556 10.5059 43.0587 13.7275 46.279C16.949 49.4993 21.053 51.6922 25.5206 52.5806C29.9882 53.4691 34.6189 53.0131 38.8274 51.2704C43.0359 49.5276 46.6333 46.5764 49.1649 42.7896C51.6965 39.0028 53.0487 34.5505 53.0505 29.9954C53.0517 26.9679 52.4561 23.9698 51.2978 21.1726C50.1395 18.3754 48.4412 15.8339 46.3 13.6936C44.1587 11.5532 41.6166 9.85588 38.819 8.69868C36.0213 7.54148 33.023 6.94708 29.9954 6.94949Z" fill="#282138"/>
  </g>
  <defs>
    <clipPath id="clip0_1314_11040">
      <rect width="50" height="50" fill="white" transform="translate(5 5)"/>
    </clipPath>
  </defs>
</svg>
