<svg width="25" height="24" viewBox="0 0 25 24" xmlns="http://www.w3.org/2000/svg">
<path fill-rule="evenodd" clip-rule="evenodd" d="M4.77492 2.99386C3.55458 3.14788 2.69016 4.26202 2.84418 5.48235L4.2386 16.5304C4.39262 17.7508 5.50676 18.6152 6.72709 18.4612L14.4607 17.4851C15.6811 17.3311 16.5455 16.2169 16.3915 14.9966L14.9971 3.9485C14.843 2.72816 13.7289 1.86375 12.5086 2.01777L4.77492 2.99386ZM8.48759 20.4675C8.04133 20.412 7.64243 20.228 7.32334 19.9573L14.656 19.0318C16.7305 18.77 18.2 16.8759 17.9382 14.8013L16.5854 4.08331L19.6566 4.46568C20.8772 4.61764 21.7435 5.73032 21.5915 6.95092L20.0095 19.6577C19.8576 20.8783 18.7449 21.7446 17.5243 21.5926L8.48759 20.4675Z" />
</svg>
