<svg width="24" height="24" viewBox="0 0 24 24" fill="none"
  xmlns="http://www.w3.org/2000/svg">
  <path fill-rule="evenodd" clip-rule="evenodd" d="M12 21C16.9706 21 21 16.9706 21 12C21 7.02944 16.9706 3 12 3C7.02944 3 3 7.02944 3 12C3 16.9706 7.02944 21 12 21ZM16.5919 11.3902C17.1292 10.8503 17.137 9.96714 16.6092 9.4175C16.0815 8.86785 15.2182 8.85989 14.6809 9.39973L11.0083 13.0896L9.31915 11.3925C8.78184 10.8527 7.91847 10.8606 7.39075 11.4103C6.86304 11.9599 6.87082 12.8431 7.40813 13.383L9.59074 15.5758C10.3725 16.3613 11.644 16.3613 12.4258 15.5758L16.5919 11.3902Z" fill="white"/>
</svg>

