<svg width="24" height="24" viewBox="0 0 24 24" fill="none" xmlns="http://www.w3.org/2000/svg">
<path fill-rule="evenodd" clip-rule="evenodd" d="M15.4916 13.1568L20.7971 18.4376C20.8608 18.5001 20.9115 18.5744 20.9463 18.6565C20.9811 18.7384 20.9993 18.8265 21 18.9155C21.0006 19.0045 20.9836 19.0928 20.9499 19.1753C20.9162 19.2578 20.8666 19.3328 20.8038 19.3962L20.4145 19.7824C20.3051 19.8965 20.1606 19.971 20.0038 19.9941C19.9003 20.0078 19.795 19.9976 19.6961 19.9641C19.5972 19.9306 19.5075 19.8747 19.4339 19.801L12.9553 13.3526C12.8427 13.2407 12.7534 13.1077 12.6923 12.9614C12.6314 12.8151 12.6 12.6582 12.6 12.4998C12.6 12.3413 12.6314 12.1845 12.6923 12.0381C12.7534 11.8918 12.8427 11.7588 12.9553 11.6469L19.4339 5.1985C19.497 5.13557 19.572 5.08565 19.6545 5.05159C19.737 5.01753 19.8255 5 19.9148 5C20.0042 5 20.0926 5.01753 20.1752 5.05159C20.2577 5.08565 20.3327 5.13557 20.3958 5.1985L20.7971 5.6046C20.8603 5.66742 20.9105 5.74204 20.9447 5.82417C20.9789 5.90631 20.9965 5.99435 20.9965 6.08327C20.9965 6.17219 20.9789 6.26023 20.9447 6.34237C20.9105 6.4245 20.8603 6.49912 20.7971 6.56195L15.4916 11.844C15.3176 12.0186 15.22 12.2545 15.22 12.5004C15.22 12.7463 15.3176 12.9822 15.4916 13.1568ZM8.5081 11.8496L3.20473 6.56749C3.14038 6.50492 3.08915 6.43026 3.054 6.34782C3.01886 6.26538 3.00051 6.17682 3.00001 6.08726C2.99951 5.99771 3.01688 5.90894 3.05111 5.82612C3.08533 5.7433 3.13573 5.66808 3.19939 5.60481L3.58718 5.21733C3.69761 5.10394 3.84224 5.02959 3.99904 5.00563C4.10249 4.99228 4.20765 5.00275 4.3064 5.03622C4.40516 5.06969 4.49489 5.12527 4.56869 5.19869L11.0448 11.6472C11.1574 11.7591 11.2467 11.8921 11.3077 12.0384C11.3686 12.1848 11.4 12.3416 11.4 12.5001C11.4 12.6585 11.3686 12.8153 11.3077 12.9617C11.2467 13.108 11.1574 13.2409 11.0448 13.3529L4.56869 19.8014C4.50548 19.8644 4.43043 19.9143 4.34783 19.9484C4.26523 19.9825 4.1767 20 4.08729 20C3.99788 20 3.90935 19.9825 3.82675 19.9484C3.74415 19.9143 3.6691 19.8644 3.6059 19.8014L3.20473 19.402C3.1415 19.339 3.09133 19.2642 3.05711 19.182C3.02288 19.0998 3.00527 19.0116 3.00527 18.9226C3.00527 18.8336 3.02288 18.7454 3.05711 18.6631C3.09133 18.5809 3.1415 18.5062 3.20473 18.4432L8.5081 13.1625C8.68203 12.9879 8.77963 12.7519 8.77963 12.506C8.77963 12.2601 8.68203 12.0242 8.5081 11.8496Z" fill="white"/>
</svg>
