<svg width="24" height="24" viewBox="0 0 24 24" fill="none" xmlns="http://www.w3.org/2000/svg">
<path fill-rule="evenodd" clip-rule="evenodd" d="M12 21C16.9706 21 21 16.9706 21 12C21 7.02944 16.9706 3 12 3C7.02944 3 3 7.02944 3 12C3 16.9706 7.02944 21 12 21ZM7.94539 7.94534C8.53918 7.35155 9.50191 7.35155 10.0957 7.94534L12 9.84969L13.9043 7.94539C14.4981 7.3516 15.4609 7.3516 16.0546 7.94539C16.6484 8.53918 16.6484 9.5019 16.0546 10.0957L14.1503 12L16.0547 13.9043C16.6485 14.4981 16.6485 15.4608 16.0547 16.0546C15.4609 16.6484 14.4982 16.6484 13.9044 16.0546L12 14.1503L10.0956 16.0547C9.50185 16.6485 8.53913 16.6485 7.94534 16.0547C7.35155 15.4609 7.35155 14.4982 7.94534 13.9044L9.84974 12L7.94539 10.0956C7.3516 9.50185 7.3516 8.53913 7.94539 7.94534Z" fill="white"/>
</svg>
