<svg width="24" height="24" viewBox="0 0 24 24" fill="none"
  xmlns="http://www.w3.org/2000/svg">
  <path d="M8.18702 3.06403L11.8435 1.04312C11.9477 0.985626 12.0768 0.985626 12.181 1.04312L21.8178 6.36801C21.922 6.42549 21.986 6.53186 21.9871 6.64684L22.0001 10.3092C22.0001 10.4251 21.936 10.5325 21.8308 10.59L18.1794 12.608C17.955 12.7326 17.6738 12.5773 17.6727 12.3292L17.6607 9.04243C17.6607 8.92744 17.5957 8.82108 17.4915 8.76358L8.18702 3.62363C7.96175 3.49906 7.96175 3.18859 8.18702 3.06403Z" fill="#ffffff"/>
  <path d="M5.82472 19.6529L2.16921 17.6329C2.06408 17.5754 2 17.469 2 17.353V6.70331C2 6.58832 2.06408 6.48196 2.16821 6.4235L5.47629 4.58083C5.58142 4.52237 5.71058 4.52237 5.81471 4.58083L9.46621 6.59886C9.69048 6.72343 9.69149 7.03294 9.46721 7.15847L6.49955 8.81141C6.39542 8.86891 6.33135 8.97527 6.33135 9.09122V19.374C6.33135 19.6231 6.05 19.7774 5.82472 19.6529Z" fill="#ffffff"/>
  <path d="M22.0001 13.3123V17.3522C22.0001 17.4682 21.936 17.5745 21.8308 17.632L12.1939 22.9569C12.0898 23.0144 11.9617 23.0144 11.8575 22.9569L8.53643 21.1362C8.4313 21.0787 8.36621 20.9714 8.36621 20.8555V16.8204C8.36621 16.5723 8.64656 16.4169 8.87184 16.5396L11.8515 18.1734C11.9557 18.2309 12.0838 18.2299 12.1879 18.1734L21.4924 13.0316C21.7176 12.907 21.999 13.0622 21.999 13.3114L22.0001 13.3123Z" fill="#ffffff"/>
</svg>
