<svg width="572" height="572" viewBox="0 0 572 572" fill="none" xmlns="http://www.w3.org/2000/svg">
<circle cx="286" cy="286" r="285.5" stroke="#7346F3" stroke-opacity="0.18"/>
<circle cx="286" cy="286" r="156.5" stroke="#7346F3" stroke-opacity="0.18"/>
<g filter="url(#filter0_bd_101_173)">
<path fill-rule="evenodd" clip-rule="evenodd" d="M312.545 245.97V256.476C312.545 262.021 310.342 267.339 306.421 271.26L293.428 284.254C293.027 284.654 293.027 285.346 293.428 285.747L306.421 298.74C310.342 302.661 312.545 307.979 312.545 313.524V324.03C312.545 327.88 309.425 331 305.575 331H271.424C267.575 331 264.454 327.88 264.454 324.03L264.454 313.524C264.454 307.979 266.657 302.661 270.578 298.739L283.571 285.746C283.972 285.346 283.972 284.654 283.571 284.253L270.578 271.26C266.657 267.339 264.454 262.021 264.454 256.476V245.97C264.454 242.12 267.575 239 271.424 239H305.575C309.425 239 312.545 242.12 312.545 245.97Z" fill="url(#paint0_radial_101_173)" fill-opacity="0.9" shape-rendering="crispEdges"/>
</g>
<g filter="url(#filter1_d_101_173)">
<path d="M306.97 249.264V257.383C306.97 261.668 305.278 265.777 302.266 268.807L292.285 278.847C290.961 280.29 290.248 283.454 289.847 286.612C289.132 292.24 287.862 293.259 287.352 287.608C287.089 284.705 286.728 281.727 285.899 280.147C285.624 279.623 285.132 279.267 284.714 278.847L274.734 268.807C271.722 265.777 270.03 261.668 270.03 257.383V249.264C270.03 246.29 272.427 243.879 275.384 243.879H301.616C304.573 243.879 306.97 246.29 306.97 249.264Z" fill="url(#paint1_radial_101_173)" fill-opacity="0.9" shape-rendering="crispEdges"/>
</g>
<circle cx="439" cy="254" r="5" fill="#7346F3" fill-opacity="0.3"/>
<circle cx="45" cy="134" r="5" fill="#7346F3" fill-opacity="0.3"/>
<circle cx="544" cy="164" r="6" fill="#7346F3" fill-opacity="0.3"/>
<defs>
<filter id="filter0_bd_101_173" x="172.454" y="169" width="232.091" height="276" filterUnits="userSpaceOnUse" color-interpolation-filters="sRGB">
<feFlood flood-opacity="0" result="BackgroundImageFix"/>
<feGaussianBlur in="BackgroundImageFix" stdDeviation="13"/>
<feComposite in2="SourceAlpha" operator="in" result="effect1_backgroundBlur_101_173"/>
<feColorMatrix in="SourceAlpha" type="matrix" values="0 0 0 0 0 0 0 0 0 0 0 0 0 0 0 0 0 0 127 0" result="hardAlpha"/>
<feOffset dy="22"/>
<feGaussianBlur stdDeviation="46"/>
<feComposite in2="hardAlpha" operator="out"/>
<feColorMatrix type="matrix" values="0 0 0 0 0.296392 0 0 0 0 0.282353 0 0 0 0 0.984314 0 0 0 1 0"/>
<feBlend mode="normal" in2="effect1_backgroundBlur_101_173" result="effect2_dropShadow_101_173"/>
<feBlend mode="normal" in="SourceGraphic" in2="effect2_dropShadow_101_173" result="shape"/>
</filter>
<filter id="filter1_d_101_173" x="150.03" y="145.879" width="276.939" height="287.494" filterUnits="userSpaceOnUse" color-interpolation-filters="sRGB">
<feFlood flood-opacity="0" result="BackgroundImageFix"/>
<feColorMatrix in="SourceAlpha" type="matrix" values="0 0 0 0 0 0 0 0 0 0 0 0 0 0 0 0 0 0 127 0" result="hardAlpha"/>
<feOffset dy="22"/>
<feGaussianBlur stdDeviation="60"/>
<feComposite in2="hardAlpha" operator="out"/>
<feColorMatrix type="matrix" values="0 0 0 0 0.296392 0 0 0 0 0.282353 0 0 0 0 0.984314 0 0 0 0.61 0"/>
<feBlend mode="normal" in2="BackgroundImageFix" result="effect1_dropShadow_101_173"/>
<feBlend mode="normal" in="SourceGraphic" in2="effect1_dropShadow_101_173" result="shape"/>
</filter>
<radialGradient id="paint0_radial_101_173" cx="0" cy="0" r="1" gradientUnits="userSpaceOnUse" gradientTransform="translate(288.5 333.5) rotate(-90) scale(108.5 108.5)">
<stop stop-color="#826EFD"/>
<stop offset="1" stop-color="#3B4CE1" stop-opacity="0.4"/>
</radialGradient>
<radialGradient id="paint1_radial_101_173" cx="0" cy="0" r="1" gradientUnits="userSpaceOnUse" gradientTransform="translate(288.848 247.015) rotate(90) scale(47.0455 36.4926)">
<stop stop-color="#826EFD"/>
<stop offset="1" stop-color="#3B4CE1" stop-opacity="0"/>
</radialGradient>
</defs>
</svg>
