<svg width="53" height="53" viewBox="0 0 53 53" fill="none"
  xmlns="http://www.w3.org/2000/svg">
  <g clip-path="url(#clip0_5548_49208)">
    <path d="M9.50098 50.0239V39.0847H10.7836V48.8364H16.3838V50.0239H9.50098ZM17.6965 50.0239V39.0847H24.3015V40.2723H18.9837V43.9316H23.2933V45.1191H18.9837V48.8387H24.3779V50.0262L17.6965 50.0239ZM25.6848 50.0239V39.0847H28.4143L32.1532 49.1964H32.5839V39.0847H33.8572V50.0239H31.1265L27.4026 39.8981H26.957V50.0239H25.6848ZM39.2502 50.2423C38.5342 50.2545 37.8239 50.1108 37.1666 49.8208C36.57 49.5551 36.0654 49.1126 35.7185 48.5507C35.3666 47.9825 35.1903 47.2715 35.1895 46.4176V46.0895H36.4628V46.4176C36.4628 47.3242 36.7233 47.9986 37.2442 48.4409C37.7651 48.8832 38.4342 49.1047 39.2514 49.1055C40.0895 49.1055 40.7281 48.9127 41.1672 48.5271C41.3776 48.3514 41.5464 48.1294 41.6606 47.8778C41.7749 47.6261 41.8318 47.3513 41.827 47.074C41.8454 46.7245 41.7389 46.3802 41.5272 46.1048C41.2994 45.8427 41.0132 45.6402 40.6926 45.5146C40.2848 45.3473 39.8643 45.2138 39.4354 45.1156L38.6391 44.9126C38.0689 44.7657 37.5145 44.5617 36.9837 44.3035C36.5358 44.0913 36.1482 43.7663 35.8574 43.3591C35.5866 42.9656 35.4511 42.4628 35.4511 41.8505C35.4372 41.2844 35.5953 40.7278 35.9037 40.2569C36.2215 39.7952 36.6632 39.437 37.1759 39.2252C37.7765 38.9769 38.4206 38.8564 39.0685 38.8711C39.7387 38.8602 40.4039 38.9904 41.0225 39.2535C41.572 39.487 42.0447 39.8757 42.3849 40.3738C42.716 40.8696 42.8819 41.492 42.8827 42.2412V42.8976H41.6093V42.2412C41.6093 41.71 41.4998 41.2831 41.2806 40.9605C41.0564 40.6337 40.741 40.3832 40.3754 40.2416C39.9579 40.0779 39.5134 39.9978 39.0662 40.0055C38.3616 40.0055 37.7944 40.1629 37.3646 40.4777C36.9347 40.7924 36.7202 41.243 36.721 41.8293C36.7059 42.1645 36.803 42.495 36.9965 42.7665C37.2047 43.027 37.4738 43.2299 37.779 43.3568C38.1697 43.5262 38.5745 43.6593 38.9886 43.7546L39.7862 43.9588C40.364 44.0786 40.9267 44.2647 41.4635 44.5136C41.9312 44.725 42.3395 45.0525 42.6512 45.4662C42.9475 45.8675 43.0957 46.3913 43.0957 47.0374C43.1089 47.6357 42.9433 48.224 42.6211 48.7242C42.2877 49.2206 41.8234 49.6106 41.2818 49.8492C40.6397 50.1259 39.9471 50.2599 39.2502 50.2423Z" fill="#BDFB5A"/>
    <path d="M32.3724 9.80517C32.2497 9.9303 32.1339 10.0578 32.0159 10.1841C32.0159 10.0094 32.0263 9.82996 32.0263 9.6588C32.0263 9.48764 32.0263 9.29522 32.0182 9.1158C31.8168 1.66485 20.8038 1.66485 20.6023 9.1158C20.6023 9.29522 20.5954 9.46993 20.5954 9.6588C20.5954 9.84767 20.6012 10.0129 20.6058 10.1841C20.4901 10.0578 20.3743 9.9303 20.2481 9.80517C20.122 9.68005 19.9946 9.5502 19.8673 9.42625C14.5576 4.30314 6.77067 12.244 11.7945 17.6587C11.9164 17.7885 12.0403 17.918 12.1661 18.047C18.2282 24.2337 26.3103 24.2337 26.3103 24.2337C26.3103 24.2337 34.3935 24.2337 40.4556 18.0517C40.5822 17.9227 40.7061 17.7932 40.8272 17.6634C45.851 12.2487 38.0641 4.30786 32.7544 9.43097C32.6263 9.55217 32.499 9.6769 32.3724 9.80517V9.80517Z" stroke="#BDFB5A" stroke-width="1.6" stroke-miterlimit="10" fill="none" />
    <path d="M18.1221 18.0009C18.1221 16.3317 19.6686 14.9778 21.5762 14.9778C23.4839 14.9778 25.0304 16.3317 25.0304 18.0009" stroke="#BDFB5A" stroke-width="0.7" stroke-linejoin="round" fill="none"/>
    <path d="M22.6419 18.0211C23.3778 18.0211 23.9743 17.4128 23.9743 16.6624C23.9743 15.912 23.3778 15.3037 22.6419 15.3037C21.9061 15.3037 21.3096 15.912 21.3096 16.6624C21.3096 17.4128 21.9061 18.0211 22.6419 18.0211Z" fill="#BDFB5A"/>
    <path d="M27.6211 18.0009C27.6211 16.3317 29.1676 14.9778 31.0752 14.9778C32.9829 14.9778 34.5294 16.3317 34.5294 18.0009" stroke="#BDFB5A" stroke-width="0.7" stroke-linejoin="round" fill="none"/>
    <path d="M32.1419 18.0211C32.8778 18.0211 33.4743 17.4128 33.4743 16.6624C33.4743 15.912 32.8778 15.3037 32.1419 15.3037C31.4061 15.3037 30.8096 15.912 30.8096 16.6624C30.8096 17.4128 31.4061 18.0211 32.1419 18.0211Z" fill="#BDFB5A"/>
    <path d="M28.4752 19.7893C28.0933 20.5035 27.2668 21.0004 26.306 21.0004C25.3452 21.0004 24.5187 20.5035 24.1367 19.7893" stroke="#BDFB5A" stroke-width="0.7" stroke-linejoin="round"/>
    <path d="M42.8595 34.4374C40.5627 35.5077 37.9855 35.7817 35.5217 35.2177C33.1604 34.684 31.0278 33.3958 29.4341 31.5406C29.5915 31.6586 29.7536 31.759 29.9191 31.8617C31.2551 32.6888 32.7873 33.128 34.3502 33.1318C35.7345 33.1303 37.0973 32.7829 38.3195 32.1202C38.4075 32.073 38.4966 32.0234 38.5846 31.9726L37.9549 30.8441L37.7234 30.9728C36.6156 31.5723 35.3737 31.867 34.1202 31.8276C32.8667 31.7883 31.6449 31.4164 30.5754 30.7485C29.4694 30.0767 28.5541 29.1226 27.9197 27.9802C27.2854 26.8378 26.954 25.5465 26.9581 24.2337V23.7332H25.6732V24.2337C25.6776 25.5462 25.3462 26.8373 24.7118 27.9794C24.0775 29.1215 23.162 30.0751 22.0558 30.7462C20.9863 31.414 19.7645 31.786 18.511 31.8253C17.2575 31.8646 16.0156 31.57 14.9079 30.9704L14.6764 30.8418L14.0467 31.9703C14.1346 32.021 14.2226 32.0706 14.3117 32.1178C15.5339 32.7806 16.8967 33.1279 18.281 33.1295C19.8436 33.1261 21.3756 32.6868 22.711 31.8593C22.8777 31.7566 23.0397 31.6504 23.1972 31.5382C21.6033 33.3932 19.4707 34.6813 17.1096 35.2153C14.6457 35.7794 12.0685 35.5054 9.77178 34.435L9.13281 35.5659C11.7098 36.796 14.6144 37.119 17.3908 36.4843C20.2234 35.8442 22.754 34.2304 24.5584 31.9136C24.9844 31.3694 25.3588 30.7852 25.6766 30.1689V36.803H26.95V30.1465C27.2708 30.7718 27.649 31.3647 28.0797 31.9172C29.8835 34.2338 32.4132 35.8479 35.245 36.489C38.0209 37.1215 40.9241 36.7968 43.4996 35.5659L42.8595 34.4374Z" fill="#BDFB5A"/>
  </g>
  <defs>
    <clipPath id="clip0_5548_49208">
      <rect width="53" height="53" fill="white"/>
    </clipPath>
  </defs>
</svg>
