<svg width="6" height="47" viewBox="0 0 6 47" fill="none"
  xmlns="http://www.w3.org/2000/svg">
  <path d="M0.571615 3C0.571615 4.47276 1.76552 5.66667 3.23828 5.66667C4.71104 5.66667 5.90495 4.47276 5.90495 3C5.90495 1.52724 4.71104 0.333333 3.23828 0.333333C1.76552 0.333333 0.571615 1.52724 0.571615 3ZM0.571615 44C0.571615 45.4728 1.76552 46.6667 3.23828 46.6667C4.71104 46.6667 5.90495 45.4728 5.90495 44C5.90495 42.5272 4.71104 41.3333 3.23828 41.3333C1.76552 41.3333 0.571615 42.5272 0.571615 44ZM2.73828 3V44H3.73828V3H2.73828Z" fill="#100827" fill-opacity="0.8"/>
</svg>
