<svg width="101" height="7" viewBox="0 0 101 7" fill="none" xmlns="http://www.w3.org/2000/svg">
<path d="M98 0.833333C96.5272 0.833333 95.3333 2.02724 95.3333 3.5C95.3333 4.97276 96.5272 6.16667 98 6.16667C99.4728 6.16667 100.667 4.97276 100.667 3.5C100.667 2.02724 99.4728 0.833333 98 0.833333ZM3 0.833329C1.52724 0.833329 0.333336 2.02724 0.333336 3.5C0.333336 4.97276 1.52724 6.16666 3 6.16666C4.47276 6.16666 5.66667 4.97276 5.66667 3.5C5.66667 2.02724 4.47276 0.833329 3 0.833329ZM98 3L3 3L3 4L98 4L98 3Z" fill="#100827" fill-opacity="0.8"/>
</svg>
