<svg width="265" height="67" viewBox="0 0 265 67" fill="none" xmlns="http://www.w3.org/2000/svg">
<path fill-rule="evenodd" clip-rule="evenodd" d="M47.6118 7.5495V31.3208L38.2182 24.0301L28.8271 31.3208V7.5495L38.2182 0.258789L47.6118 7.5495ZM9.39111 46.4065L0 53.6972V29.9259L9.39111 22.6352V46.4065ZM52.6379 21.4996H52.6354V39.128L38.2221 50.315L23.8087 39.128V21.4996V11.4483L14.4151 18.739V42.5103L14.47 42.4663V43.5651L38.2221 62.0011L61.9742 43.5651V42.4663L62.029 42.5103V18.739L52.6379 11.4483V21.4996ZM67.0486 46.4065V22.6352L76.4422 29.9259V53.6972L67.0486 46.4065Z" fill="url(#paint0_linear_7862_96778)"/>
<path d="M122.205 14.8796C122.205 17.2141 120.926 18.6148 118.198 18.6148H113.68V11.2293H118.198C120.926 11.2293 122.205 12.6725 122.205 14.8796ZM106.391 5.20209V34.9987H113.68V23.7507H115.427L121.651 34.9987H129.877L122.972 23.1989C127.576 21.8407 129.622 18.3177 129.622 14.5825C129.622 9.40418 125.956 5.20209 118.624 5.20209H106.391Z" fill="#100827"/>
<path d="M157.471 23.1565C157.471 15.6436 152.1 10.9747 145.11 10.9747C138.162 10.9747 132.748 15.6436 132.748 23.1565C132.748 30.6693 138.034 35.3383 145.024 35.3383C152.015 35.3383 157.471 30.6693 157.471 23.1565ZM140.165 23.1565C140.165 19.1242 142.467 17.2566 145.11 17.2566C147.667 17.2566 150.054 19.1242 150.054 23.1565C150.054 27.1463 147.624 29.0564 145.024 29.0564C142.382 29.0564 140.165 27.1463 140.165 23.1565Z" fill="#100827"/>
<path d="M159.889 23.1565C159.889 30.6693 164.833 35.3383 171.824 35.3383C177.792 35.3383 182.012 31.9002 183.248 26.4248H175.49C174.85 28.165 173.7 29.1413 171.696 29.1413C169.096 29.1413 167.306 27.1039 167.306 23.1565C167.306 19.2091 169.096 17.1717 171.696 17.1717C173.7 17.1717 174.893 18.2328 175.49 19.8882H183.248C182.012 14.2429 177.792 10.9747 171.824 10.9747C164.833 10.9747 159.889 15.6861 159.889 23.1565Z" fill="#100827"/>
<path d="M187.147 34.9987H194.436V11.3142H187.147V34.9987ZM190.812 8.85239C193.37 8.85239 195.118 7.11213 195.118 4.94742C195.118 2.74026 193.37 1 190.812 1C188.212 1 186.465 2.74026 186.465 4.94742C186.465 7.11213 188.212 8.85239 190.812 8.85239Z" fill="#100827"/>
<path d="M199.718 34.9987H207.007V22.9442V17.299V11.0171H219.198V5.20209H199.718V34.9987Z" fill="#100827"/>
<path d="M223.029 34.9987H230.318V11.3142H223.029V34.9987ZM226.695 8.85239C229.252 8.85239 231 7.11213 231 4.94742C231 2.74026 229.252 1 226.695 1C224.095 1 222.347 2.74026 222.347 4.94742C222.347 7.11213 224.095 8.85239 226.695 8.85239Z" fill="#100827"/>
<path d="M217.579 18.1689V23.892H207.035L208.828 19.6236C209.205 18.7259 209.932 18.1689 210.722 18.1689H217.579Z" fill="url(#paint1_linear_7862_96778)"/>
<path d="M104.855 52.7359C104.855 56.0799 107.303 58.4319 110.519 58.4319C112.999 58.4319 115.015 57.1199 115.767 54.8159H113.191C112.663 55.9039 111.703 56.4319 110.503 56.4319C108.551 56.4319 107.159 54.9919 107.159 52.7359C107.159 50.4639 108.551 49.0399 110.503 49.0399C111.703 49.0399 112.663 49.5679 113.191 50.6399H115.767C115.015 48.3519 112.999 47.0239 110.519 47.0239C107.303 47.0239 104.855 49.3919 104.855 52.7359ZM124.08 50.6399C124.08 51.6479 123.52 52.3039 122.272 52.3039H120.4V49.0239H122.272C123.52 49.0239 124.08 49.6479 124.08 50.6399ZM118.16 47.1679V58.3359H120.4V53.9839H121.456L123.92 58.3359H126.512L123.84 53.8079C125.632 53.3279 126.384 51.9519 126.384 50.5919C126.384 48.7199 125.04 47.1679 122.352 47.1679H118.16ZM135.37 47.1519H128.89V58.3359H135.37V56.5119H131.13V53.5519H134.89V51.7759H131.13V48.9759H135.37V47.1519ZM141.79 47.1679H137.886V58.3359H141.79C145.358 58.3359 147.678 56.1439 147.678 52.7679C147.678 49.3759 145.358 47.1679 141.79 47.1679ZM140.126 56.4319V49.0559H141.71C144.062 49.0559 145.39 50.4479 145.39 52.7679C145.39 55.0879 144.062 56.4319 141.71 56.4319H140.126ZM149.835 58.3359H152.075V47.1679H149.835V58.3359ZM154.176 48.9759H157.152V58.3359H159.392V48.9759H162.368V47.1679H154.176V48.9759ZM174.695 50.6399C174.695 51.6479 174.135 52.3039 172.887 52.3039H171.015V49.0239H172.887C174.135 49.0239 174.695 49.6479 174.695 50.6399ZM168.775 47.1679V58.3359H171.015V53.9839H172.071L174.535 58.3359H177.127L174.455 53.8079C176.247 53.3279 176.999 51.9519 176.999 50.5919C176.999 48.7199 175.655 47.1679 172.967 47.1679H168.775ZM179.505 58.3359H181.745V47.1679H179.505V58.3359ZM192.246 55.1039C192.246 51.1679 186.518 52.4159 186.518 50.1759C186.518 49.2639 187.174 48.8319 188.054 48.8639C189.014 48.8799 189.606 49.4559 189.654 50.1919H192.118C191.974 48.1759 190.406 47.0079 188.118 47.0079C185.814 47.0079 184.182 48.2239 184.182 50.2399C184.166 54.2879 189.926 52.8319 189.926 55.2479C189.926 56.0479 189.302 56.6079 188.246 56.6079C187.206 56.6079 186.614 56.0159 186.55 55.1199H184.15C184.182 57.2319 185.974 58.4479 188.294 58.4479C190.838 58.4479 192.246 56.8639 192.246 55.1039ZM200.972 58.3359H203.804L199.068 52.7039L203.676 47.1679H200.972L196.908 52.1759V47.1679H194.668V58.3359H196.908V53.3599L200.972 58.3359ZM217.858 55.1039C217.858 51.1679 212.13 52.4159 212.13 50.1759C212.13 49.2639 212.786 48.8319 213.666 48.8639C214.626 48.8799 215.218 49.4559 215.266 50.1919H217.73C217.586 48.1759 216.018 47.0079 213.73 47.0079C211.426 47.0079 209.794 48.2239 209.794 50.2399C209.778 54.2879 215.538 52.8319 215.538 55.2479C215.538 56.0479 214.914 56.6079 213.858 56.6079C212.818 56.6079 212.226 56.0159 212.162 55.1199H209.762C209.794 57.2319 211.586 58.4479 213.906 58.4479C216.45 58.4479 217.858 56.8639 217.858 55.1039ZM219.736 52.7359C219.736 56.0799 222.184 58.4319 225.4 58.4319C227.88 58.4319 229.896 57.1199 230.648 54.8159H228.072C227.544 55.9039 226.584 56.4319 225.384 56.4319C223.432 56.4319 222.04 54.9919 222.04 52.7359C222.04 50.4639 223.432 49.0399 225.384 49.0399C226.584 49.0399 227.544 49.5679 228.072 50.6399H230.648C229.896 48.3519 227.88 47.0239 225.4 47.0239C222.184 47.0239 219.736 49.3919 219.736 52.7359ZM243.937 52.7199C243.937 49.3759 241.409 47.0079 238.225 47.0079C235.073 47.0079 232.497 49.3759 232.497 52.7199C232.497 56.0799 235.073 58.4479 238.225 58.4479C241.393 58.4479 243.937 56.0799 243.937 52.7199ZM234.801 52.7199C234.801 50.4479 236.193 49.0239 238.225 49.0239C240.241 49.0239 241.633 50.4479 241.633 52.7199C241.633 54.9919 240.241 56.4479 238.225 56.4479C236.193 56.4479 234.801 54.9919 234.801 52.7199ZM252.003 50.6399C252.003 51.6479 251.443 52.3039 250.195 52.3039H248.323V49.0239H250.195C251.443 49.0239 252.003 49.6479 252.003 50.6399ZM246.083 47.1679V58.3359H248.323V53.9839H249.379L251.843 58.3359H254.435L251.763 53.8079C253.555 53.3279 254.307 51.9519 254.307 50.5919C254.307 48.7199 252.963 47.1679 250.275 47.1679H246.083ZM263.293 47.1519H256.813V58.3359H263.293V56.5119H259.053V53.5519H262.813V51.7759H259.053V48.9759H263.293V47.1519Z" fill="#100827" fill-opacity="0.8"/>
<defs>
<linearGradient id="paint0_linear_7862_96778" x1="38.2202" y1="1.60998" x2="81.8474" y2="77.3515" gradientUnits="userSpaceOnUse">
<stop stop-color="#8F27FF"/>
<stop offset="1" stop-color="#2F13DE"/>
</linearGradient>
<linearGradient id="paint1_linear_7862_96778" x1="212.307" y1="18.2942" x2="223.998" y2="29.0858" gradientUnits="userSpaceOnUse">
<stop stop-color="#8F27FF"/>
<stop offset="1" stop-color="#2F13DE"/>
</linearGradient>
</defs>
</svg>
