<svg width="77" height="63" viewBox="0 0 77 63" fill="none" xmlns="http://www.w3.org/2000/svg">
<mask id="path-1-inside-1_7862_96749" fill="white">
<path fill-rule="evenodd" clip-rule="evenodd" d="M37.9829 0.866455L38.2966 1.09759L47.7966 8.09759L48 8.24746V8.50012V31.0001V32.0288L47.1911 31.3933L40.1911 25.8933L40.8089 25.107L47 29.9714V8.75277L38.0171 2.13378L30 8.73608V31.0001H29V8.50012V8.26415L29.1821 8.11415L37.6821 1.11415L37.9829 0.866455ZM24.5 11.4778V12.5001V40.2571L38.0087 50.8711L53 39.7485V13.0001V11.9406L53.8179 12.6142L62.3179 19.6142L62.5 19.7642V20.0001V44.0001V44.2523L62.2972 44.4022L50.7972 52.9022L50.2028 52.098L61.5 43.7479V20.2361L54 14.0596V40.0001V40.2517L53.7979 40.4017L38.2979 51.9017L37.9913 52.1292L37.6911 51.8933L23.6911 40.8933L23.5 40.7431V40.5001V13.5224L15.5 19.7447V44.2523L38.0048 61.3755L47.2034 54.5976L47.7966 55.4026L38.2966 62.4026L37.9952 62.6247L37.6972 62.398L14.6972 44.898L14.5 44.748V44.5001V19.5001V19.2556L14.693 19.1054L23.693 12.1054L24.5 11.4778ZM10 22.4326V23.5001V36.5001H9V24.5676L1 31.2343V52.4778L9 46.2556V43.0001H10V46.5001V46.7447L9.80697 46.8948L0.80697 53.8948L0 54.5224V53.5001V31.0001V30.7659L0.179908 30.616L9.17991 23.116L10 22.4326ZM67 23.445L67.8166 24.1131L73.3166 28.6131L72.6834 29.3871L68 25.5552V46.753L75.5 52.4883V41.5001H76.5V53.5001V54.5119L75.6963 53.8973L67.1963 47.3973L67 47.2472V47.0001V24.5001V23.445Z"/>
</mask>
<path d="M38.2966 1.09759L38.8898 0.292532L38.8898 0.29253L38.2966 1.09759ZM37.9829 0.866455L38.5761 0.061397L37.9487 -0.400867L37.3472 0.0945283L37.9829 0.866455ZM47.7966 8.09759L48.3898 7.29253V7.29253L47.7966 8.09759ZM48 8.24746H49V7.74215L48.5932 7.44241L48 8.24746ZM48 32.0288L47.3822 32.8152L49 34.0863V32.0288H48ZM40.1911 25.8933L39.4048 25.2755L38.7869 26.0618L39.5733 26.6796L40.1911 25.8933ZM40.8089 25.107L41.4267 24.3206L40.6404 23.7028L40.0226 24.4891L40.8089 25.107ZM47 29.9714L46.3822 30.7577L48 32.0288V29.9714H47ZM47 8.75277H48V8.24746L47.5932 7.94771L47 8.75277ZM38.0171 2.13378L38.6103 1.32872L37.9829 0.866455L37.3814 1.36185L38.0171 2.13378ZM30 8.73608L29.3643 7.96415L29 8.26415V8.73608H30ZM30 31.0001V32.0001H31V31.0001H30ZM29 31.0001H28V32.0001H29V31.0001ZM29 8.26415L28.3643 7.49222L28 7.79223V8.26415H29ZM29.1821 8.11415L28.5464 7.34222V7.34222L29.1821 8.11415ZM37.6821 1.11415L38.3179 1.88608L38.3179 1.88608L37.6821 1.11415ZM24.5 11.4778H25.5V9.43316L23.8861 10.6884L24.5 11.4778ZM24.5 40.2571H23.5V40.7431L23.8822 41.0434L24.5 40.2571ZM38.0087 50.8711L37.3909 51.6574L37.9913 52.1292L38.6045 51.6742L38.0087 50.8711ZM53 39.7485L53.5958 40.5516L54 40.2517V39.7485H53ZM53 11.9406L53.6357 11.1687L52 9.82164V11.9406H53ZM53.8179 12.6142L53.1821 13.3861L53.8179 12.6142ZM62.3179 19.6142L61.6821 20.3861L61.6821 20.3861L62.3179 19.6142ZM62.5 19.7642H63.5V19.2922L63.1357 18.9922L62.5 19.7642ZM62.5 44.2523L63.0944 45.0565L63.5 44.7567V44.2523H62.5ZM62.2972 44.4022L61.7028 43.598L62.2972 44.4022ZM50.7972 52.9022L49.993 53.4966L50.5874 54.3008L51.3916 53.7064L50.7972 52.9022ZM50.2028 52.098L49.6084 51.2938L48.8042 51.8882L49.3986 52.6924L50.2028 52.098ZM61.5 43.7479L62.0944 44.5521L62.5 44.2523V43.7479H61.5ZM61.5 20.2361H62.5V19.7642L62.1357 19.4641L61.5 20.2361ZM54 14.0596L54.6357 13.2877L53 11.9406V14.0596H54ZM54 40.2517L54.5959 41.0548L55 40.755V40.2517H54ZM53.7979 40.4017L54.3938 41.2048L54.3938 41.2048L53.7979 40.4017ZM38.2979 51.9017L38.8938 52.7048L38.8938 52.7048L38.2979 51.9017ZM37.9913 52.1292L37.3735 52.9155L37.9739 53.3872L38.5871 52.9323L37.9913 52.1292ZM37.6911 51.8933L38.3089 51.107L37.6911 51.8933ZM23.6911 40.8933L24.3089 40.107L24.3089 40.1069L23.6911 40.8933ZM23.5 40.7431H22.5V41.2292L22.8822 41.5295L23.5 40.7431ZM23.5 13.5224H24.5V11.4778L22.8861 12.7331L23.5 13.5224ZM15.5 19.7447L14.8861 18.9553L14.5 19.2556V19.7447H15.5ZM15.5 44.2523H14.5V44.748L14.8945 45.0481L15.5 44.2523ZM38.0048 61.3755L37.3993 62.1713L37.9952 62.6247L38.598 62.1806L38.0048 61.3755ZM47.2034 54.5976L48.0085 54.0044L47.4153 53.1993L46.6102 53.7925L47.2034 54.5976ZM47.7966 55.4026L48.3898 56.2077L49.1949 55.6145L48.6017 54.8094L47.7966 55.4026ZM38.2966 62.4026L37.7034 61.5976L37.7034 61.5976L38.2966 62.4026ZM37.9952 62.6247L37.3897 63.4206L37.9856 63.874L38.5884 63.4298L37.9952 62.6247ZM37.6972 62.398L37.0917 63.1939L37.6972 62.398ZM14.6972 44.898L14.0917 45.6939H14.0917L14.6972 44.898ZM14.5 44.748H13.5V45.2436L13.8945 45.5438L14.5 44.748ZM14.5 19.2556L13.8861 18.4662L13.5 18.7665V19.2556H14.5ZM14.693 19.1054L14.0791 18.3161L14.0791 18.3161L14.693 19.1054ZM23.693 12.1054L23.0791 11.3161V11.3161L23.693 12.1054ZM10 22.4326H11V20.2976L9.35982 21.6644L10 22.4326ZM10 36.5001V37.5001H11V36.5001H10ZM9 36.5001H8V37.5001H9V36.5001ZM9 24.5676H10V22.4326L8.35982 23.7994L9 24.5676ZM1 31.2343L0.359816 30.4661L0 30.7659V31.2343H1ZM1 52.4778H0V54.5224L1.61394 53.2671L1 52.4778ZM9 46.2556L9.61394 47.0449L10 46.7447V46.2556H9ZM9 43.0001V42.0001H8V43.0001H9ZM10 43.0001H11V42.0001H10V43.0001ZM10 46.7447L10.6139 47.534L11 47.2337V46.7447H10ZM9.80697 46.8948L10.4209 47.6841H10.4209L9.80697 46.8948ZM0.80697 53.8948L0.19303 53.1054H0.19303L0.80697 53.8948ZM0 54.5224H-1V56.5671L0.613941 55.3118L0 54.5224ZM0 30.7659L-0.640185 29.9977L-1 30.2976V30.7659H0ZM0.179908 30.616L-0.460277 29.8478L-0.460277 29.8478L0.179908 30.616ZM9.17991 23.116L8.53972 22.3478H8.53972L9.17991 23.116ZM67.8166 24.1131L68.4499 23.3392L67.8166 24.1131ZM67 23.445L67.6332 22.671L66 21.3348V23.445H67ZM73.3166 28.6131L74.0906 29.2464L74.7238 28.4724L73.9499 27.8392L73.3166 28.6131ZM72.6834 29.3871L72.0501 30.1611L72.8241 30.7943L73.4573 30.0203L72.6834 29.3871ZM68 25.5552L68.6332 24.7813L67 23.445V25.5552H68ZM68 46.753H67V47.2472L67.3925 47.5474L68 46.753ZM75.5 52.4883L74.8925 53.2827L76.5 54.5119V52.4883H75.5ZM75.5 41.5001V40.5001H74.5V41.5001H75.5ZM76.5 41.5001H77.5V40.5001H76.5V41.5001ZM76.5 54.5119L75.8925 55.3063L77.5 56.5355V54.5119H76.5ZM75.6963 53.8973L75.0888 54.6917V54.6917L75.6963 53.8973ZM67.1963 47.3973L66.5888 48.1917L67.1963 47.3973ZM67 47.2472H66V47.7414L66.3925 48.0416L67 47.2472ZM38.8898 0.29253L38.5761 0.061397L37.3897 1.67151L37.7034 1.90265L38.8898 0.29253ZM48.3898 7.29253L38.8898 0.292532L37.7034 1.90264L47.2034 8.90264L48.3898 7.29253ZM48.5932 7.44241L48.3898 7.29253L47.2034 8.90264L47.4068 9.05252L48.5932 7.44241ZM49 8.50012V8.24746H47V8.50012H49ZM49 31.0001V8.50012H47V31.0001H49ZM49 32.0288V31.0001H47V32.0288H49ZM46.5733 32.1796L47.3822 32.8152L48.6178 31.2425L47.8089 30.607L46.5733 32.1796ZM39.5733 26.6796L46.5733 32.1796L47.8089 30.607L40.8089 25.107L39.5733 26.6796ZM40.0226 24.4891L39.4048 25.2755L40.9774 26.5111L41.5952 25.7248L40.0226 24.4891ZM47.6178 29.1851L41.4267 24.3206L40.1911 25.8933L46.3822 30.7577L47.6178 29.1851ZM46 8.75277V29.9714H48V8.75277H46ZM37.4239 2.93883L46.4068 9.55783L47.5932 7.94771L38.6103 1.32872L37.4239 2.93883ZM30.6357 9.50801L38.6528 2.90571L37.3814 1.36185L29.3643 7.96415L30.6357 9.50801ZM31 31.0001V8.73608H29V31.0001H31ZM29 32.0001H30V30.0001H29V32.0001ZM28 8.50012V31.0001H30V8.50012H28ZM28 8.26415V8.50012H30V8.26415H28ZM28.5464 7.34222L28.3643 7.49222L29.6357 9.03608L29.8179 8.88608L28.5464 7.34222ZM37.0464 0.34222L28.5464 7.34222L29.8179 8.88608L38.3179 1.88608L37.0464 0.34222ZM37.3472 0.0945283L37.0464 0.342224L38.3179 1.88608L38.6186 1.63838L37.3472 0.0945283ZM25.5 12.5001V11.4778H23.5V12.5001H25.5ZM25.5 40.2571V12.5001H23.5V40.2571H25.5ZM38.6265 50.0848L25.1178 39.4708L23.8822 41.0434L37.3909 51.6574L38.6265 50.0848ZM52.4042 38.9454L37.4128 50.068L38.6045 51.6742L53.5958 40.5516L52.4042 38.9454ZM52 13.0001V39.7485H54V13.0001H52ZM52 11.9406V13.0001H54V11.9406H52ZM54.4536 11.8422L53.6357 11.1687L52.3643 12.7126L53.1821 13.3861L54.4536 11.8422ZM62.9536 18.8422L54.4536 11.8422L53.1821 13.3861L61.6821 20.3861L62.9536 18.8422ZM63.1357 18.9922L62.9536 18.8422L61.6821 20.3861L61.8643 20.5361L63.1357 18.9922ZM63.5 20.0001V19.7642H61.5V20.0001H63.5ZM63.5 44.0001V20.0001H61.5V44.0001H63.5ZM63.5 44.2523V44.0001H61.5V44.2523H63.5ZM62.8916 45.2064L63.0944 45.0565L61.9056 43.4481L61.7028 43.598L62.8916 45.2064ZM51.3916 53.7064L62.8916 45.2064L61.7028 43.598L50.2028 52.098L51.3916 53.7064ZM49.3986 52.6924L49.993 53.4966L51.6014 52.3078L51.007 51.5036L49.3986 52.6924ZM60.9056 42.9437L49.6084 51.2938L50.7972 52.9022L62.0944 44.5521L60.9056 42.9437ZM60.5 20.2361V43.7479H62.5V20.2361H60.5ZM53.3643 14.8315L60.8643 21.008L62.1357 19.4641L54.6357 13.2877L53.3643 14.8315ZM55 40.0001V14.0596H53V40.0001H55ZM55 40.2517V40.0001H53V40.2517H55ZM54.3938 41.2048L54.5959 41.0548L53.4041 39.4486L53.2021 39.5986L54.3938 41.2048ZM38.8938 52.7048L54.3938 41.2048L53.2021 39.5986L37.7021 51.0986L38.8938 52.7048ZM38.5871 52.9323L38.8938 52.7048L37.7021 51.0986L37.3955 51.3261L38.5871 52.9323ZM37.0733 52.6796L37.3735 52.9155L38.6091 51.3428L38.3089 51.107L37.0733 52.6796ZM23.0733 41.6796L37.0733 52.6796L38.3089 51.107L24.3089 40.107L23.0733 41.6796ZM22.8822 41.5295L23.0733 41.6796L24.3089 40.1069L24.1178 39.9568L22.8822 41.5295ZM22.5 40.5001V40.7431H24.5V40.5001H22.5ZM22.5 13.5224V40.5001H24.5V13.5224H22.5ZM16.1139 20.534L24.1139 14.3118L22.8861 12.7331L14.8861 18.9553L16.1139 20.534ZM16.5 44.2523V19.7447H14.5V44.2523H16.5ZM38.6103 60.5797L16.1055 43.4564L14.8945 45.0481L37.3993 62.1713L38.6103 60.5797ZM46.6102 53.7925L37.4116 60.5704L38.598 62.1806L47.7966 55.4026L46.6102 53.7925ZM48.6017 54.8094L48.0085 54.0044L46.3983 55.1908L46.9915 55.9958L48.6017 54.8094ZM38.8898 63.2077L48.3898 56.2077L47.2034 54.5976L37.7034 61.5976L38.8898 63.2077ZM38.5884 63.4298L38.8898 63.2077L37.7034 61.5976L37.402 61.8197L38.5884 63.4298ZM37.0917 63.1939L37.3897 63.4206L38.6007 61.8289L38.3028 61.6022L37.0917 63.1939ZM14.0917 45.6939L37.0917 63.1939L38.3028 61.6022L15.3028 44.1022L14.0917 45.6939ZM13.8945 45.5438L14.0917 45.6939L15.3028 44.1022L15.1055 43.9521L13.8945 45.5438ZM13.5 44.5001V44.748H15.5V44.5001H13.5ZM13.5 19.5001V44.5001H15.5V19.5001H13.5ZM13.5 19.2556V19.5001H15.5V19.2556H13.5ZM14.0791 18.3161L13.8861 18.4662L15.1139 20.0449L15.307 19.8948L14.0791 18.3161ZM23.0791 11.3161L14.0791 18.3161L15.307 19.8948L24.307 12.8948L23.0791 11.3161ZM23.8861 10.6884L23.0791 11.3161L24.307 12.8948L25.1139 12.2671L23.8861 10.6884ZM11 23.5001V22.4326H9V23.5001H11ZM11 36.5001V23.5001H9V36.5001H11ZM9 37.5001H10V35.5001H9V37.5001ZM8 24.5676V36.5001H10V24.5676H8ZM1.64018 32.0025L9.64018 25.3359L8.35982 23.7994L0.359816 30.4661L1.64018 32.0025ZM2 52.4778V31.2343H0V52.4778H2ZM8.38606 45.4662L0.386059 51.6884L1.61394 53.2671L9.61394 47.0449L8.38606 45.4662ZM8 43.0001V46.2556H10V43.0001H8ZM10 42.0001H9V44.0001H10V42.0001ZM11 46.5001V43.0001H9V46.5001H11ZM11 46.7447V46.5001H9V46.7447H11ZM10.4209 47.6841L10.6139 47.534L9.38606 45.9553L9.19303 46.1054L10.4209 47.6841ZM1.42091 54.6841L10.4209 47.6841L9.19303 46.1054L0.19303 53.1054L1.42091 54.6841ZM0.613941 55.3118L1.42091 54.6841L0.19303 53.1054L-0.613941 53.7331L0.613941 55.3118ZM-1 53.5001V54.5224H1V53.5001H-1ZM-1 31.0001V53.5001H1V31.0001H-1ZM-1 30.7659V31.0001H1V30.7659H-1ZM-0.460277 29.8478L-0.640185 29.9977L0.640185 31.5341L0.820093 31.3842L-0.460277 29.8478ZM8.53972 22.3478L-0.460277 29.8478L0.820092 31.3842L9.82009 23.8842L8.53972 22.3478ZM9.35982 21.6644L8.53972 22.3478L9.82009 23.8842L10.6402 23.2008L9.35982 21.6644ZM68.4499 23.3392L67.6332 22.671L66.3668 24.219L67.1834 24.8871L68.4499 23.3392ZM73.9499 27.8392L68.4499 23.3392L67.1834 24.8871L72.6834 29.3871L73.9499 27.8392ZM73.4573 30.0203L74.0906 29.2464L72.5427 27.9799L71.9094 28.7539L73.4573 30.0203ZM67.3668 26.3292L72.0501 30.1611L73.3166 28.6131L68.6332 24.7813L67.3668 26.3292ZM69 46.753V25.5552H67V46.753H69ZM76.1075 51.694L68.6075 45.9587L67.3925 47.5474L74.8925 53.2827L76.1075 51.694ZM74.5 41.5001V52.4883H76.5V41.5001H74.5ZM76.5 40.5001H75.5V42.5001H76.5V40.5001ZM77.5 53.5001V41.5001H75.5V53.5001H77.5ZM77.5 54.5119V53.5001H75.5V54.5119H77.5ZM75.0888 54.6917L75.8925 55.3063L77.1075 53.7175L76.3037 53.1029L75.0888 54.6917ZM66.5888 48.1917L75.0888 54.6917L76.3037 53.1029L67.8037 46.6029L66.5888 48.1917ZM66.3925 48.0416L66.5888 48.1917L67.8037 46.6029L67.6075 46.4528L66.3925 48.0416ZM66 47.0001V47.2472H68V47.0001H66ZM66 24.5001V47.0001H68V24.5001H66ZM66 23.445V24.5001H68V23.445H66Z" fill="black" mask="url(#path-1-inside-1_7862_96749)"/>
</svg>
