<svg width="24" height="24" viewBox="0 0 24 24" fill="none"
  xmlns="http://www.w3.org/2000/svg">
  <path d="M16.3577 9.27893C16.0836 9.11276 15.7311 9.11276 15.4178 9.27893L13.2245 10.6499L11.7363 11.5223L9.58225 12.8932C9.30809 13.0593 8.95561 13.0593 8.6423 12.8932L6.95822 11.8131C6.68407 11.6469 6.48825 11.3145 6.48825 10.9407V8.8635C6.48825 8.53116 6.64491 8.19881 6.95822 7.9911L8.6423 6.95252C8.91645 6.78635 9.26893 6.78635 9.58225 6.95252L11.2663 8.03264C11.5405 8.19881 11.7363 8.53116 11.7363 8.90505V10.276L13.2245 9.36202V7.94956C13.2245 7.61721 13.0679 7.28487 12.7546 7.07715L9.62141 5.12463C9.34726 4.95846 8.99478 4.95846 8.68146 5.12463L5.46997 7.11869C5.15666 7.28487 5 7.61721 5 7.94956V11.8546C5 12.1869 5.15666 12.5193 5.46997 12.727L8.6423 14.6795C8.91645 14.8457 9.26893 14.8457 9.58225 14.6795L11.7363 13.3501L13.2245 12.4362L15.3786 11.1068C15.6527 10.9407 16.0052 10.9407 16.3185 11.1068L18.0026 12.1454C18.2768 12.3116 18.4726 12.6439 18.4726 13.0178V15.095C18.4726 15.4273 18.3159 15.7596 18.0026 15.9674L16.3577 17.0059C16.0836 17.1721 15.7311 17.1721 15.4178 17.0059L13.7337 15.9674C13.4595 15.8012 13.2637 15.4688 13.2637 15.095V13.7656L11.7755 14.6795V16.0504C11.7755 16.3828 11.9321 16.7151 12.2454 16.9229L15.4178 18.8754C15.6919 19.0415 16.0444 19.0415 16.3577 18.8754L19.53 16.9229C19.8042 16.7567 20 16.4243 20 16.0504V12.1039C20 11.7715 19.8433 11.4392 19.53 11.2315L16.3577 9.27893Z" fill="#ffffff"/>
</svg>
