<svg width="53" height="53" viewBox="0 0 53 53" fill="none" xmlns="http://www.w3.org/2000/svg">
<path fill-rule="evenodd" clip-rule="evenodd" d="M21.9718 36.8417C21.9718 35.808 22.0295 34.7362 22.5458 33.8401L22.6011 33.7454C23.2845 32.5617 24.5813 31.9078 25.8179 31.3239C26.7446 30.8859 27.5304 30.1973 28.0863 29.3361C28.6422 28.4748 28.9461 27.4753 28.9636 26.4503C28.9811 25.4254 28.7116 24.416 28.1854 23.5363C27.6593 22.6565 26.8975 21.9415 25.9863 21.4721C24.7202 20.8181 23.373 20.1298 22.6613 18.8969L22.52 18.6536C22.0406 17.8214 21.9718 16.8294 21.9718 15.8695C21.9716 14.9023 21.7162 13.9522 21.2311 13.1155C20.7461 12.2787 20.0487 11.5848 19.2095 11.1039C18.3703 10.6231 17.4191 10.3723 16.4519 10.377C15.4847 10.3817 14.5359 10.6417 13.7014 11.1307C12.8669 11.6197 12.1763 12.3203 11.6994 13.1618C11.2226 14.0032 10.9763 14.9557 10.9856 15.9228C10.9949 16.89 11.2593 17.8376 11.7523 18.6697C12.2452 19.5019 12.9491 20.1891 13.7928 20.662C15.0871 21.3885 16.4872 22.1125 17.2296 23.3982L17.4582 23.794C17.9007 24.5598 17.9769 25.4706 17.9769 26.3556C17.9769 27.1619 17.8946 27.9904 17.4902 28.6886L17.173 29.2393C16.3987 30.5791 14.9409 31.3436 13.6207 32.1512C12.8021 32.6502 12.1283 33.3547 11.6664 34.1948C11.2044 35.0349 10.9703 35.9812 10.9875 36.9398C11.0046 37.8983 11.2723 38.8357 11.7639 39.6588C12.2556 40.4818 12.9541 41.1619 13.79 41.6313C14.6259 42.1008 15.5701 42.3433 16.5288 42.3347C17.4875 42.3261 18.4272 42.0668 19.2546 41.5826C20.082 41.0983 20.7683 40.4059 21.2452 39.5742C21.7221 38.7425 21.973 37.8005 21.973 36.8417H21.9718Z" fill="url(#paint0_linear_2598_15604)"/>
<path d="M34.4343 21.3615C33.7061 21.3724 32.9829 21.2384 32.307 20.9673C31.6311 20.6961 31.0158 20.2933 30.497 19.7822C29.9782 19.2711 29.5662 18.6619 29.2849 17.9901C29.0037 17.3183 28.8589 16.5972 28.8589 15.8689C28.8589 15.1406 29.0037 14.4196 29.2849 13.7478C29.5662 13.076 29.9782 12.4668 30.497 11.9557C31.0158 11.4446 31.6311 11.0418 32.307 10.7706C32.9829 10.4995 33.7061 10.3655 34.4343 10.3763C35.8768 10.3979 37.2529 10.9861 38.2653 12.0138C39.2778 13.0415 39.8453 14.4263 39.8453 15.8689C39.8453 17.3116 39.2778 18.6964 38.2653 19.7241C37.2529 20.7518 35.8768 21.34 34.4343 21.3615ZM34.4552 42.335C32.9983 42.335 31.6011 41.7563 30.5709 40.7261C29.5407 39.6959 28.962 38.2987 28.962 36.8418C28.962 35.3849 29.5407 33.9877 30.5709 32.9575C31.6011 31.9274 32.9983 31.3486 34.4552 31.3486C35.9121 31.3486 37.3093 31.9274 38.3395 32.9575C39.3696 33.9877 39.9484 35.3849 39.9484 36.8418C39.9484 38.2987 39.3696 39.6959 38.3395 40.7261C37.3093 41.7563 35.9121 42.335 34.4552 42.335ZM47.589 31.887C46.1321 31.887 44.7348 31.3083 43.7047 30.2781C42.6745 29.2479 42.0958 27.8507 42.0958 26.3938C42.0958 24.9369 42.6745 23.5397 43.7047 22.5095C44.7348 21.4793 46.1321 20.9006 47.589 20.9006C49.0315 20.9222 50.4076 21.5103 51.42 22.5381C52.4325 23.5658 53 24.9505 53 26.3932C53 27.8358 52.4325 29.2206 51.42 30.2483C50.4076 31.276 49.0315 31.8642 47.589 31.8858V31.887ZM5.49321 31.887C4.03632 31.887 2.6391 31.3083 1.60892 30.2781C0.578747 29.2479 0 27.8507 0 26.3938C0 24.9369 0.578747 23.5397 1.60892 22.5095C2.6391 21.4793 4.03632 20.9006 5.49321 20.9006C6.9357 20.9222 8.31181 21.5103 9.32427 22.5381C10.3367 23.5658 10.9042 24.9505 10.9042 26.3932C10.9042 27.8358 10.3367 29.2206 9.32427 30.2483C8.31181 31.276 6.9357 31.8642 5.49321 31.8858V31.887Z" fill="#FFFEFE"/>
<defs>
<linearGradient id="paint0_linear_2598_15604" x1="19.9744" y1="42.3349" x2="19.9744" y2="10.3762" gradientUnits="userSpaceOnUse">
<stop stop-color="#B465DA"/>
<stop offset="0.33" stop-color="#CF6CC9"/>
<stop offset="0.66" stop-color="#EE609C"/>
<stop offset="1" stop-color="#EE609C"/>
</linearGradient>
</defs>
</svg>
