<svg width="32" height="32" viewBox="0 0 32 32" fill="none" xmlns="http://www.w3.org/2000/svg">
<path fill-rule="evenodd" clip-rule="evenodd" d="M7.90108 10.7457C6.91753 13.6963 7.66834 16.6434 9.83306 18.3751C11.5544 19.7522 13.3909 20.1156 15.5947 20.1773C16.646 20.2067 17.8274 20.168 19.1412 20.1249L19.2594 20.121C19.72 20.1059 20.2008 20.0904 20.7044 20.0767L17.7232 23.0579L19.6088 24.9435L24.4708 20.0816C25.2518 19.3005 25.2518 18.0342 24.4708 17.2531L19.6088 12.3912L17.7232 14.2768L20.8516 17.4051C20.2578 17.4204 19.6987 17.4385 19.1721 17.4558L19.1084 17.4579L19.1083 17.4579C17.7484 17.5024 16.6383 17.5388 15.6693 17.5116C13.7394 17.4576 12.5758 17.1543 11.4989 16.2928C10.3303 15.3579 9.74778 13.6383 10.4309 11.589C11.1014 9.57741 13.0366 7.20891 16.9633 5.33398H22.666C24.8752 5.33398 26.666 7.12485 26.666 9.33399V22.6673C26.666 24.8765 24.8752 26.6673 22.666 26.6673H9.33268C7.12354 26.6673 5.33268 24.8765 5.33268 22.6673V9.33398C5.33268 7.12485 7.12355 5.33398 9.33269 5.33398H11.9152C9.84835 6.98857 8.52997 8.85902 7.90108 10.7457Z" fill="#C1D9FE" fill-opacity="0.36"/>
</svg>
