<svg width="25" height="24" viewBox="0 0 25 24" fill="none"
  xmlns="http://www.w3.org/2000/svg">
  <path d="M4.81836 8.25912C4.81836 10.1709 6.23003 11.5091 8.23152 11.5091C9.84624 11.5091 11.0645 10.6625 11.4513 9.27873H9.63352C9.35312 9.82495 8.84067 10.0981 8.21218 10.0981C7.19694 10.0981 6.50077 9.38798 6.50077 8.25912C6.50077 7.13026 7.19694 6.42018 8.21218 6.42018C8.84067 6.42018 9.35312 6.69329 9.63352 7.23951H11.4513C11.0645 5.85575 9.84624 5 8.23152 5C6.23003 5 4.81836 6.34735 4.81836 8.25912Z" fill="#B5BEED" />
  <path d="M14.2701 8.02893H14.5938C14.932 8.02893 15.1916 7.96303 15.3724 7.83125C15.5531 7.69946 15.6435 7.51002 15.6435 7.26292C15.6435 7.01582 15.5531 6.82637 15.3724 6.69459C15.1916 6.5628 14.932 6.49691 14.5938 6.49691H14.2701V8.02893ZM18.0405 11.4636H15.906L14.2701 9.07498V11.4636H12.5554V5.25317H15.2236C15.5911 5.25317 15.9118 5.30534 16.1859 5.40967C16.46 5.50851 16.6846 5.64578 16.8595 5.8215C17.0403 5.99721 17.1745 6.20039 17.262 6.43101C17.3553 6.66164 17.4019 6.90874 17.4019 7.17231C17.4019 7.64455 17.2794 8.02893 17.0345 8.32545C16.7954 8.61648 16.4396 8.81416 15.9672 8.91849L18.0405 11.4636Z" fill="#B5BEED" />
  <path d="M9.24786 14.1568H7.20954V15.1947H9.13414V16.5619H7.20954V17.6327H9.24786V19H5.49491V12.7896H9.24786V14.1568Z" fill="#B5BEED" />
  <path d="M11.5864 12.7896L12.7236 16.8008L14.1233 12.7896H15.488L16.8877 16.8008L18.025 12.7896H19.8184L17.85 19H16.1004L14.8057 15.4006L13.5109 19H11.7613L9.79298 12.7896H11.5864Z" fill="#B5BEED" />
  <path d="M19.7946 9C19.4114 9 19.0709 8.9474 18.7732 8.84221C18.4771 8.73574 18.2443 8.58935 18.0749 8.40304C17.9055 8.21673 17.8199 8.00253 17.8184 7.76046H19.1485C19.1501 7.83523 19.1786 7.90241 19.234 7.96198C19.291 8.02028 19.3686 8.06591 19.4668 8.09886C19.565 8.13181 19.6774 8.14829 19.8041 8.14829C19.926 8.14829 20.0337 8.13118 20.1271 8.09696C20.2205 8.06147 20.2934 8.01267 20.3456 7.95057C20.3979 7.88847 20.4232 7.81749 20.4216 7.73764C20.4232 7.65906 20.3931 7.58935 20.3314 7.52852C20.2712 7.46768 20.1865 7.42015 20.0772 7.38593C19.968 7.35171 19.8421 7.3346 19.6996 7.3346H19.2055V6.60456H19.6996C19.831 6.60456 19.9466 6.58745 20.0463 6.55323C20.1477 6.51901 20.2261 6.47148 20.2815 6.41065C20.3385 6.34981 20.3662 6.2801 20.3646 6.20152C20.3662 6.12548 20.3433 6.0583 20.2957 6C20.2482 5.9417 20.1817 5.89607 20.0962 5.86312C20.0123 5.83016 19.9149 5.81369 19.8041 5.81369C19.6837 5.81369 19.576 5.8308 19.481 5.86502C19.3876 5.89924 19.314 5.94677 19.2601 6.0076C19.2063 6.06844 19.1786 6.13815 19.177 6.21673H17.9134C17.915 5.97845 17.9965 5.76806 18.158 5.58555C18.3211 5.40304 18.5444 5.25982 18.8278 5.15589C19.1113 5.05196 19.4367 5 19.8041 5C20.1635 5 20.481 5.0488 20.7565 5.14639C21.0337 5.24398 21.2498 5.37833 21.405 5.54943C21.5618 5.71926 21.6393 5.91381 21.6378 6.13308C21.6409 6.35108 21.5475 6.52978 21.3575 6.6692C21.169 6.80862 20.9299 6.891 20.6402 6.91635V6.94677C21.0329 6.98099 21.3282 7.07731 21.5261 7.23574C21.7241 7.3929 21.8215 7.59062 21.8183 7.8289C21.8199 8.05703 21.7344 8.25919 21.5618 8.43536C21.3907 8.61153 21.1524 8.74968 20.8468 8.84981C20.5428 8.94994 20.192 9 19.7946 9Z" fill="#B5BEED" />
</svg>
