<svg width="24" height="24" viewBox="0 0 24 24" fill="none" xmlns="http://www.w3.org/2000/svg">
<g clip-path="url(#clip0_4577_44535)">
<path d="M20.9915 11.7335C20.9795 11.1495 20.9108 10.5717 20.7925 9.99965C20.6118 9.12373 20.3165 8.28644 19.9069 7.48867C19.4523 6.60397 18.8776 5.80269 18.1811 5.08614C17.3441 4.22515 16.3809 3.53363 15.294 3.01027C14.4485 2.60327 13.562 2.3192 12.6349 2.15718C12.1548 2.07332 11.6716 2.02151 11.184 2.00834C11.1724 2.00834 11.1608 2.00263 11.1487 2H4.71327C4.6102 2.01756 4.50625 2.03073 4.40452 2.05313C3.68352 2.21382 3.10842 2.84255 3.02008 3.56349C3.01472 3.60783 3.00669 3.65218 3 3.69652V20.3035C3.01383 20.3891 3.02588 20.4751 3.04194 20.5608C3.17802 21.2668 3.79372 21.8551 4.51383 21.9693C4.58388 21.9802 4.65393 21.9899 4.72397 22.0004H8.45033C8.45747 21.827 8.4655 21.6536 8.47174 21.4802C8.48914 20.9946 8.50654 20.509 8.52305 20.0234C8.53331 19.7305 8.54224 19.4377 8.55205 19.1448C8.57124 18.5819 8.59087 18.0191 8.61005 17.4562C8.62656 16.9723 8.64262 16.4881 8.65913 16.0042C8.68189 15.3447 8.70509 14.6857 8.72739 14.0263C8.74301 13.5652 8.75773 13.1038 8.77335 12.6428C8.78227 12.3745 8.7912 12.1063 8.80413 11.838C8.80681 11.7831 8.78941 11.7559 8.74212 11.7278C8.50297 11.586 8.34771 11.373 8.25491 11.1197C8.05503 10.5731 8.08804 10.044 8.41017 9.54698C8.53331 9.35731 8.70419 9.21944 8.9246 9.14568C8.93977 9.14041 8.95449 9.11451 8.95761 9.09607C9.00535 8.83219 9.08299 8.57754 9.19943 8.33518C9.25164 8.22629 9.31098 8.12048 9.36362 8.01993C9.28331 7.98876 9.19497 7.96725 9.1218 7.92158C9.04506 7.87417 8.96921 7.81358 8.91612 7.74201C8.6627 7.40262 8.41374 7.05971 8.1688 6.71461C7.88861 6.31946 7.65036 5.9006 7.45851 5.45671C7.38087 5.27757 7.39158 5.10371 7.49866 4.93906C7.59369 4.79285 7.78465 4.76344 7.91002 4.88066C8.17326 5.12698 8.47576 5.31709 8.78406 5.50193C9.01829 5.64243 9.25342 5.78337 9.47561 5.94099C9.61571 6.04066 9.7326 6.1715 9.85886 6.28697C10.1315 5.8163 10.5379 5.64024 11.088 5.80796C11.2433 5.40051 11.5378 5.16473 11.9897 5.14322C12.203 5.13312 12.3975 5.2003 12.5702 5.32411C12.7424 5.44793 12.858 5.61301 12.9222 5.81235C13.4161 5.61038 13.943 5.85713 14.1594 6.30541C14.184 6.27599 14.2067 6.24833 14.2304 6.22111C14.412 6.01212 14.6435 5.86811 14.88 5.72893C15.1428 5.57394 15.4056 5.41895 15.6621 5.25386C15.7732 5.1823 15.8718 5.09053 15.9704 5.00184C16.1074 4.87891 16.2997 4.86135 16.4518 4.96628C16.599 5.06726 16.6512 5.2543 16.5803 5.42027C16.3474 5.9669 16.0364 6.46918 15.6862 6.94951C15.4961 7.21031 15.3079 7.47287 15.1173 7.73367C15.0152 7.87329 14.8778 7.9611 14.706 7.9971C14.6872 8.00105 14.6685 8.00544 14.6453 8.01071C14.6551 8.02828 14.6627 8.04364 14.6716 8.05857C14.8604 8.37689 14.988 8.71716 15.0473 9.08158C15.054 9.12153 15.0687 9.14217 15.1106 9.15666C15.336 9.23437 15.4988 9.38804 15.6246 9.5821C15.7777 9.81832 15.8526 10.0796 15.8705 10.357C15.8923 10.6973 15.8303 11.0205 15.6585 11.3199C15.5564 11.4977 15.4194 11.643 15.2383 11.7445C15.2093 11.7607 15.2039 11.7792 15.2048 11.8073C15.2151 12.1142 15.2244 12.4211 15.2342 12.728C15.2432 13.0015 15.2525 13.275 15.2619 13.5486C15.278 14.0096 15.2954 14.4706 15.3114 14.932C15.3244 15.3022 15.3351 15.6723 15.348 16.042C15.3641 16.5047 15.3815 16.9675 15.3975 17.4307C15.41 17.7991 15.4212 18.1675 15.4337 18.5354C15.4497 18.9999 15.4671 19.4644 15.4832 19.9294C15.4935 20.224 15.5024 20.5186 15.5122 20.8132C15.5126 20.8303 15.5144 20.8479 15.5162 20.8725C15.5492 20.8563 15.5769 20.8435 15.6046 20.829C16.4549 20.3829 17.2272 19.831 17.9184 19.1694C18.7522 18.3712 19.4268 17.4593 19.943 16.4341C20.3928 15.5401 20.6997 14.6005 20.8626 13.6157C20.9371 13.1648 20.9826 12.7113 20.9915 12.2542C20.9915 12.2432 20.9973 12.2318 21 12.2208V11.7783C20.9969 11.7633 20.9915 11.7484 20.9915 11.7331V11.7335ZM5.15497 12.5387C4.98364 12.4847 4.8141 12.4263 4.64456 12.3675C4.49688 12.3161 4.39872 12.1769 4.39738 12.0246C4.39604 11.8705 4.49465 11.7287 4.64456 11.6764C4.81231 11.6176 4.98007 11.5596 5.14961 11.5061C5.50922 11.3923 5.87284 11.6549 5.87151 12.0246C5.87017 12.3894 5.50788 12.6507 5.15497 12.5392V12.5387ZM7.21936 16.0723C6.7906 16.2659 6.35961 16.4551 5.92906 16.6448C5.77603 16.7124 5.60872 16.661 5.5293 16.5254C5.4472 16.3849 5.48557 16.2198 5.62433 16.121C6.00446 15.851 6.3837 15.5801 6.76562 15.3123C7.0351 15.123 7.39961 15.2635 7.46966 15.581C7.47635 15.6117 7.4768 15.6433 7.47948 15.667C7.47412 15.8593 7.38846 15.9959 7.21936 16.0723ZM7.36883 8.81902C7.2796 8.91913 7.16449 8.9683 7.03064 8.97093C6.93516 8.96918 6.84905 8.94503 6.7732 8.89103C6.39128 8.62057 6.00937 8.3501 5.62879 8.07789C5.49227 7.98042 5.45568 7.81182 5.53733 7.67659C5.61987 7.5396 5.7845 7.48955 5.93709 7.55673C6.35782 7.74201 6.779 7.92685 7.19884 8.11389C7.49242 8.24517 7.57451 8.58676 7.36883 8.81814V8.81902ZM16.6258 8.13233C17.059 7.93563 17.4949 7.74508 17.9313 7.55409C18.0758 7.49087 18.24 7.54575 18.3172 7.67571C18.3971 7.8105 18.3676 7.97778 18.2378 8.07086C17.8519 8.34791 17.4655 8.62452 17.0751 8.89542C16.9292 8.99684 16.7664 8.99947 16.6093 8.91473C16.454 8.83131 16.3795 8.69608 16.3715 8.52266C16.3818 8.34528 16.4607 8.20653 16.6254 8.13189L16.6258 8.13233ZM18.3199 16.5157C18.2387 16.6549 18.075 16.7085 17.9224 16.6413C17.4918 16.4516 17.0613 16.2615 16.6321 16.0692C16.4358 15.9814 16.3367 15.7733 16.3858 15.5665C16.4326 15.3698 16.6209 15.224 16.8266 15.2249C16.9216 15.2275 17.0091 15.2543 17.0867 15.3096C17.4673 15.5792 17.8479 15.8488 18.2275 16.1192C18.3614 16.215 18.3989 16.3814 18.3203 16.5157H18.3199ZM19.3786 12.36C19.1966 12.4259 19.0141 12.4922 18.8281 12.5444C18.4819 12.6415 18.1383 12.375 18.1388 12.0176C18.1392 11.6597 18.4903 11.3967 18.8388 11.4986C19.0195 11.5513 19.1971 11.6145 19.3742 11.6782C19.5201 11.7304 19.6129 11.8692 19.6129 12.0206C19.6129 12.1708 19.5232 12.3078 19.3786 12.36Z" fill="white"/>
<path d="M12.8749 9.15097C12.8598 9.3806 12.7366 9.53866 12.5443 9.65106C12.3422 9.76917 12.1236 9.78629 11.8983 9.7437C11.631 9.69365 11.3201 9.50705 11.2946 9.14615C10.8547 9.40914 10.4469 9.37797 10.069 9.01355C9.94364 9.21815 9.92937 9.42626 10.0427 9.63877C10.1904 9.91581 10.2667 10.2109 10.268 10.523C10.2698 10.8523 10.1864 11.161 10.0195 11.4477C9.87627 11.6931 9.90036 11.9588 10.0842 12.1721C10.3207 12.4465 10.5986 12.6731 10.9167 12.8496C11.2705 13.0454 11.6422 13.1789 12.0576 13.1732C12.4132 13.1684 12.7402 13.0797 13.0431 12.9001C13.3836 12.6981 13.6499 12.4202 13.8797 12.1045C14.0425 11.881 14.0604 11.6505 13.9252 11.4091C13.7659 11.125 13.7039 10.8141 13.6959 10.4967C13.6883 10.1836 13.7945 9.89386 13.9542 9.6234C13.9894 9.56369 14.0162 9.49651 14.0336 9.42978C14.0617 9.32221 14.0546 9.21376 14.0149 9.1097C13.6414 9.38543 13.2635 9.39597 12.8754 9.15054L12.8749 9.15097ZM12.9343 10.6785C12.8656 10.7535 12.7893 10.8225 12.7139 10.8918C12.6139 10.984 12.5077 11.0705 12.4123 11.1676C12.3694 11.211 12.3333 11.2699 12.3172 11.3278C12.261 11.5342 12.2146 11.7432 12.1655 11.9513C12.1459 12.0338 12.0892 12.0821 12.0089 12.0826C11.9326 12.083 11.8746 12.0395 11.8546 11.9623C11.8006 11.7533 11.747 11.5443 11.6948 11.3353C11.677 11.2628 11.64 11.204 11.5837 11.154C11.4213 11.0091 11.2607 10.862 11.0997 10.7158C11.0372 10.6591 11.0207 10.5911 11.0528 10.5274C11.0845 10.4655 11.1483 10.437 11.2281 10.4475C11.4682 10.48 11.7078 10.5173 11.9487 10.5415C12.0406 10.5507 12.1365 10.5323 12.2298 10.5204C12.419 10.4971 12.6072 10.4686 12.7964 10.4444C12.8584 10.4365 12.9088 10.4642 12.941 10.516C12.9744 10.5705 12.9762 10.6315 12.9334 10.6785H12.9343Z" fill="white"/>
</g>
<defs>
<clipPath id="clip0_4577_44535">
<rect width="18" height="20" fill="white" transform="translate(3 2)"/>
</clipPath>
</defs>
</svg>
