<svg width="25" height="24" viewBox="0 0 25 24" fill="none"
  xmlns="http://www.w3.org/2000/svg">
  <g clip-path="url(#clip0_3915_18380)">
    <path d="M21.8753 12.4424C21.8786 12.3791 21.885 12.3158 21.885 12.2533C21.885 11.2402 21.8866 10.2271 21.881 9.21479C21.8802 9.06331 21.9173 8.99518 22.083 8.99999C22.4119 9.00961 22.7416 8.99999 23.0713 9.0048C23.6168 9.01362 23.9053 9.29494 23.9069 9.83676C23.911 11.6161 23.9118 13.3954 23.9069 15.1747C23.9053 15.731 23.6192 15.9995 23.0535 16.0019C22.7715 16.0035 22.4887 15.9963 22.2066 16.0035C21.9844 16.0091 21.8228 15.9209 21.6943 15.7446C20.9565 14.7291 20.2147 13.716 19.4736 12.7029C19.4381 12.6548 19.392 12.6139 19.3177 12.5338C19.3055 12.638 19.2942 12.6877 19.2942 12.7374C19.2942 13.7505 19.2918 14.7636 19.3023 15.7758C19.3039 15.9634 19.2465 16.0147 19.0623 16.0115C18.5314 16.0003 18.0004 16.0027 17.4695 16.0115C17.3168 16.0139 17.2764 15.9626 17.2764 15.8159C17.2804 13.6102 17.2804 11.4045 17.2764 9.19876C17.2764 9.05129 17.3224 8.99919 17.4727 9.00079C17.9568 9.00721 18.4409 9.00801 18.9249 9.00079C19.1835 8.99679 19.3702 9.09778 19.5205 9.30616C20.2518 10.3177 20.9896 11.3251 21.7258 12.3342C21.7565 12.3759 21.7913 12.4136 21.8244 12.4536L21.8761 12.444L21.8753 12.4424Z" fill="#B5BEED" />
    <path d="M10.0974 9.03125C12.0724 9.03205 13.662 10.5741 13.6749 12.5017C13.6878 14.4309 12.0692 16.0075 10.0837 16.0003C8.10461 15.993 6.53122 14.4526 6.52637 12.5178C6.52233 10.5789 8.10785 9.02965 10.0974 9.03125ZM11.6377 12.525C11.6942 11.794 11.0114 10.9917 10.0861 11.0013C9.23678 11.0101 8.54665 11.677 8.54423 12.4993C8.5418 13.3537 9.22546 14.0302 10.091 14.0318C10.9532 14.0334 11.6369 13.3665 11.6377 12.525Z" fill="#B5BEED" />
    <path d="M5.97077 11.8092C5.97077 12.5226 5.96269 13.2351 5.97239 13.9484C5.99825 15.7839 4.7974 17.2891 3.15047 17.8068C2.8151 17.9126 2.45388 17.9351 2.10396 17.9944C1.97143 18.0168 1.90759 17.9743 1.90921 17.8253C1.91567 17.2859 1.91487 16.7457 1.90921 16.2062C1.9084 16.0692 1.96093 16.0259 2.0975 16.0147C3.12946 15.9337 3.94726 15.0753 3.95454 14.0486C3.96423 12.6556 3.95696 11.2626 3.95777 9.87042C3.95777 9.30857 4.2398 9.02484 4.81033 9.01522C5.13276 9.00961 5.45601 9.01923 5.77844 9.01041C5.93198 9.00641 5.9732 9.06572 5.97239 9.20999C5.96754 10.0764 5.96996 10.9428 5.96996 11.8092H5.97077Z" fill="#B5BEED" />
    <path d="M14.2122 12.5009C14.2122 11.4149 14.2155 10.3281 14.209 9.24204C14.2082 9.07292 14.2446 9.0048 14.4304 9.0088C14.9549 9.02002 15.4793 9.01762 16.003 9.01041C16.1622 9.008 16.2285 9.04647 16.2285 9.2204C16.2236 11.4133 16.2236 13.6054 16.2285 15.7983C16.2285 15.9514 16.1905 16.0099 16.0256 16.0067C15.4882 15.997 14.95 15.9978 14.4126 16.0067C14.251 16.0091 14.209 15.957 14.2098 15.7999C14.2163 14.7002 14.213 13.6006 14.213 12.5009H14.2122Z" fill="#B5BEED" />
    <path d="M16.2253 6.99786C16.2253 7.26396 16.2221 7.53006 16.2269 7.79615C16.2293 7.91558 16.2027 7.97809 16.0596 7.97649C15.5028 7.96928 14.9461 7.97168 14.3893 7.97489C14.2632 7.97489 14.2066 7.93561 14.2091 7.80257C14.2163 7.44349 14.2058 7.08442 14.2155 6.72535C14.2268 6.32461 14.5331 6.01683 14.9323 6.00721C15.3081 5.9976 15.6839 6.00882 16.0588 6.0008C16.1978 5.9984 16.2293 6.05851 16.2261 6.18114C16.2204 6.45365 16.2245 6.72616 16.2245 6.99866L16.2253 6.99786Z" fill="#B5BEED" />
  </g>
  <defs>
    <clipPath id="clip0_3915_18380">
      <rect width="22" height="12" fill="white" transform="translate(1.90918 6)"/>
    </clipPath>
  </defs>
</svg>
