<svg width="32" height="32" viewBox="0 0 32 32" fill="none" xmlns="http://www.w3.org/2000/svg">
<path d="M24.4238 7.57812H7.58008V24.4219H24.4238V7.57812Z" fill="white"/>
<path d="M24.4199 32L31.998 24.4219H24.4199V32Z" fill="#F72A25"/>
<path d="M31.998 7.57812H24.4199V24.4219H31.998V7.57812Z" fill="#FBBC04"/>
<path d="M24.4238 24.4219H7.58008V32H24.4238V24.4219Z" fill="#34A853"/>
<path d="M0 24.4219V29.474C0 30.8698 1.13021 32 2.52604 32H7.57812V24.4219H0Z" fill="#188038"/>
<path d="M31.998 7.57812V2.52604C31.998 1.13021 30.8678 0 29.472 0H24.4199V7.57812H31.998Z" fill="#1967D2"/>
<path d="M24.4219 0H2.52604C1.13021 0 0 1.13021 0 2.52604V24.4219H7.57812V7.57812H24.4193V0H24.4219Z" fill="#4285F4"/>
<path d="M11.0345 20.6432C10.4043 20.2187 9.9694 19.5964 9.73242 18.776L11.1934 18.1745C11.3262 18.6797 11.5579 19.0703 11.8887 19.349C12.2168 19.6276 12.6178 19.763 13.084 19.763C13.5632 19.763 13.972 19.6172 14.3158 19.3281C14.6595 19.0365 14.8314 18.6667 14.8314 18.2187C14.8314 17.7604 14.6491 17.3854 14.2871 17.0937C13.9251 16.8021 13.4694 16.6589 12.9277 16.6589H12.084V15.2135H12.8418C13.3079 15.2135 13.7038 15.0885 14.0241 14.8333C14.3444 14.5807 14.5033 14.2344 14.5033 13.7943C14.5033 13.4036 14.36 13.0911 14.0736 12.8568C13.7871 12.6224 13.4251 12.5052 12.985 12.5052C12.5553 12.5052 12.2142 12.6198 11.9616 12.849C11.709 13.0781 11.5189 13.3698 11.4095 13.6927L9.96419 13.0911C10.1569 12.5469 10.5085 12.0677 11.0241 11.6536C11.5397 11.2396 12.1986 11.0312 12.998 11.0312C13.5892 11.0312 14.123 11.1458 14.5944 11.375C15.0658 11.6042 15.4355 11.9219 15.7038 12.3255C15.972 12.7318 16.1048 13.1875 16.1048 13.6927C16.1048 14.2083 15.9798 14.6432 15.7324 15.0026C15.485 15.3594 15.1777 15.6354 14.8158 15.8255V15.9115C15.2819 16.1042 15.6908 16.4219 15.9902 16.8281C16.2949 17.2396 16.4486 17.7292 16.4486 18.3021C16.4486 18.875 16.3027 19.3854 16.0137 19.8333C15.722 20.2812 15.321 20.6354 14.8105 20.8932C14.3001 21.151 13.7246 21.2812 13.0866 21.2812C12.347 21.2812 11.6647 21.0703 11.0345 20.6432ZM20.0085 13.3932L18.4043 14.5521L17.6022 13.3359L20.4798 11.2604H21.584V21.0521H20.0085V13.3932Z" fill="#1A73E8"/>
</svg>
