<svg width="24" height="24" viewBox="0 0 24 24" fill="none"
  xmlns="http://www.w3.org/2000/svg">
  <g clip-path="url(#clip0_1725_5957)">
    <path d="M18.9308 5.42479C17.6561 4.82074 16.2892 4.37571 14.8599 4.12082C14.8339 4.1159 14.8079 4.12819 14.7945 4.15278C14.6187 4.47569 14.4239 4.89696 14.2876 5.22807C12.7503 4.9904 11.221 4.9904 9.71527 5.22807C9.57887 4.8896 9.37707 4.47569 9.20048 4.15278C9.18707 4.12901 9.16107 4.11672 9.13504 4.12082C7.70659 4.37489 6.33963 4.81993 5.06411 5.42479C5.05307 5.4297 5.04361 5.43791 5.03732 5.44855C2.44449 9.44896 1.73421 13.351 2.08265 17.2047C2.08423 17.2236 2.09447 17.2416 2.10867 17.2531C3.81934 18.5505 5.47642 19.3381 7.10273 19.8602C7.12876 19.8684 7.15634 19.8586 7.1729 19.8364C7.55761 19.2939 7.90054 18.7218 8.19456 18.1202C8.21192 18.085 8.19535 18.0432 8.15989 18.0292C7.61594 17.8161 7.098 17.5563 6.59977 17.2613C6.56037 17.2375 6.55721 17.1793 6.59347 17.1514C6.69831 17.0703 6.80318 16.9859 6.9033 16.9007C6.92141 16.8851 6.94665 16.8818 6.96794 16.8916C10.2411 18.4349 13.7846 18.4349 17.0191 16.8916C17.0404 16.881 17.0657 16.8843 17.0846 16.8998C17.1847 16.9851 17.2895 17.0703 17.3952 17.1514C17.4314 17.1793 17.4291 17.2375 17.3897 17.2613C16.8914 17.5621 16.3735 17.8161 15.8288 18.0284C15.7933 18.0424 15.7775 18.085 15.7949 18.1202C16.0952 18.721 16.4381 19.293 16.8157 19.8356C16.8315 19.8586 16.8599 19.8684 16.8859 19.8602C18.5201 19.3381 20.1772 18.5505 21.8879 17.2531C21.9028 17.2416 21.9123 17.2244 21.9139 17.2056C22.3309 12.7503 21.2154 8.88017 18.9568 5.44937C18.9513 5.43791 18.9419 5.4297 18.9308 5.42479ZM8.68335 14.8582C7.69792 14.8582 6.88594 13.9239 6.88594 12.7765C6.88594 11.6291 7.68217 10.6947 8.68335 10.6947C9.69239 10.6947 10.4965 11.6373 10.4807 12.7765C10.4807 13.9239 9.68451 14.8582 8.68335 14.8582ZM15.329 14.8582C14.3435 14.8582 13.5316 13.9239 13.5316 12.7765C13.5316 11.6291 14.3278 10.6947 15.329 10.6947C16.338 10.6947 17.1421 11.6373 17.1264 12.7765C17.1264 13.9239 16.338 14.8582 15.329 14.8582Z" fill="#B5BEED" />
  </g>
  <defs>
    <clipPath id="clip0_1725_5957">
      <rect width="20" height="16" fill="white" transform="translate(2 4)"/>
    </clipPath>
  </defs>
</svg>
