<svg width="24" height="24" viewBox="0 0 24 24" fill="none"
  xmlns="http://www.w3.org/2000/svg">
  <g clip-path="url(#clip0_1725_5980)">
    <path d="M19.9998 14.192V15.184C19.9887 15.3116 19.9757 15.4392 19.9662 15.567C19.8784 16.7889 19.5815 17.9534 19.0189 19.0464C18.5985 19.8616 18.0773 20.6017 17.4139 21.2374C16.4868 22.1259 15.394 22.7273 14.1714 23.1017C13.5829 23.2822 12.9776 23.3652 12.3639 23.4089C11.8793 23.4436 11.3956 23.4567 10.9119 23.418C10.215 23.3623 9.53705 23.2139 8.87308 22.993C7.6161 22.5748 6.56794 21.8434 5.67464 20.8768C5.19713 20.3603 4.78941 19.7943 4.49551 19.152C4.25642 18.6291 4.11737 18.0776 4.04373 17.5088C3.98465 17.0724 3.9851 16.6299 4.04507 16.1935C4.14814 15.469 4.4908 14.8881 5.10584 14.4785C5.27011 14.3692 5.45556 14.3665 5.64068 14.4023C5.97863 14.4674 6.26849 14.6389 6.53398 14.8467C6.77828 15.0381 7.01653 15.2395 7.24015 15.4542C7.76843 15.9606 8.27805 16.4864 8.66157 17.1161C8.85913 17.4406 9.05416 17.7696 9.21204 18.1141C9.33865 18.3905 9.23844 18.6777 8.9094 18.8203C8.53093 18.9842 8.16288 18.9461 7.7997 18.7727C7.40795 18.5863 7.08294 18.312 6.80586 17.9862C6.52137 17.6516 6.25975 17.2968 5.98636 16.9537C5.92903 16.8817 5.86362 16.8163 5.7994 16.745C5.62067 16.9056 5.56216 17.0981 5.61445 17.3347C5.88447 18.575 6.64747 19.4164 7.75515 19.9732C8.15279 20.1731 8.5775 20.27 9.02861 20.2468C9.68433 20.2132 10.3164 19.6403 10.4043 18.9908C10.4332 18.7766 10.4121 18.5586 10.3428 18.3539C10.3133 18.2648 10.2868 18.1747 10.2552 18.0731C10.8615 18.1688 11.3489 17.9473 11.7553 17.4986C11.7164 17.7214 11.6756 17.927 11.646 18.1341C11.6068 18.4077 11.6239 18.6816 11.6603 18.9546C11.7099 19.3262 11.7704 19.6944 11.8957 20.0511C12.0493 20.4872 12.3091 20.8302 12.7363 21.0276C12.854 21.0822 12.983 21.1145 13.1163 21.1604C13.16 20.981 13.1481 20.8156 13.1163 20.6511C13.0529 20.3149 12.9531 19.9927 12.8325 19.6714C12.5521 18.924 12.6171 18.1802 12.971 17.4747C13.6459 16.1296 14.6978 15.2049 16.1261 14.7127C16.3973 14.6192 16.6589 14.4967 16.9219 14.3805C17.0815 14.3099 17.1252 14.211 17.0929 14.0419C17.0912 14.0336 17.0902 14.0251 17.0883 14.0171C17.0007 13.6293 16.9089 13.5393 16.5103 13.5203C16.0992 13.5008 15.6864 13.5127 15.2755 13.4956C14.6769 13.4709 14.0777 13.4475 13.4812 13.3947C12.9082 13.3443 12.3476 13.2219 11.8269 12.9628C11.7147 12.9058 11.6068 12.8409 11.5039 12.7686C11.3502 12.6621 11.2251 12.5295 11.1426 12.3573C11.0738 12.2142 10.9781 12.0827 10.9216 11.9356C10.834 11.7071 10.8337 11.4635 10.8579 11.2224C10.8747 11.059 10.9684 10.9396 11.1032 10.8495C11.3015 10.7168 11.5289 10.6865 11.7573 10.661C12.1922 10.612 12.624 10.6648 13.0563 10.7033C13.5304 10.7457 14.0049 10.7825 14.4785 10.8298C14.9268 10.8745 15.3759 10.9175 15.8213 10.9836C16.3521 11.0621 16.8805 11.1582 17.408 11.2584C17.9379 11.3592 18.4368 11.5556 18.9298 11.7717C19.2938 11.9311 19.5705 12.1813 19.7291 12.5367C19.8254 12.7528 19.8745 12.9952 19.9118 13.2311C19.9561 13.5092 19.9646 13.7932 19.989 14.0745C19.9909 14.1147 19.9957 14.1533 19.9998 14.192ZM7.50496 5.1735C7.72707 5.91195 7.97305 6.64335 8.21735 7.37491C8.49965 8.22013 8.79069 9.0625 9.07972 9.90536C9.09253 9.94049 9.11525 9.97116 9.14512 9.99364C9.28703 10.0974 9.43852 10.1888 9.57421 10.2996C9.68786 10.3926 9.78454 10.5063 9.89467 10.6168C9.91249 10.5831 9.92527 10.5596 9.93771 10.5355C10.1995 10.0311 10.601 9.73437 11.1834 9.7527C11.6614 9.76766 12.1384 9.81289 12.6156 9.84685C12.7797 9.85846 12.9431 9.87661 13.12 9.89275C13.056 9.69688 12.9966 9.51394 12.9364 9.33135C12.4421 7.83224 11.9584 6.32944 11.3896 4.85605C10.943 3.70028 10.3789 2.60756 9.64096 1.60866C9.4819 1.39328 9.29661 1.20698 9.04542 1.10543C8.62979 0.937292 8.23299 0.953097 7.8905 1.27575C7.64569 1.50627 7.4826 1.7958 7.36457 2.10635C7.17071 2.61664 7.13843 3.15317 7.13893 3.69288C7.13922 3.70686 7.14119 3.72075 7.14482 3.73424C7.26268 4.21444 7.36272 4.70036 7.50496 5.1735ZM17.5447 10.3353C17.9063 9.30484 18.2679 8.27433 18.6295 7.24376C19.0197 6.13272 19.3787 5.01276 19.5515 3.84353C19.6524 3.16729 19.5334 2.5398 19.0878 1.99723C18.9084 1.77865 18.693 1.62615 18.4005 1.61051C18.1511 1.59706 17.9228 1.67171 17.7163 1.80236C17.4061 1.9984 17.1152 2.2158 16.9093 2.5324C16.7154 2.8295 16.4802 3.10104 16.3005 3.40571C15.7665 4.31148 15.3076 5.2594 14.9281 6.23999C14.5485 7.21871 14.1969 8.20853 13.8368 9.19482C13.748 9.43778 13.6737 9.68595 13.5945 9.92621L17.5173 10.412C17.5238 10.3916 17.5347 10.3634 17.545 10.3348L17.5447 10.3353ZM6.54525 12.9779C6.77626 13.4372 7.08126 13.8493 7.39584 14.2541C7.97087 14.9939 8.60642 15.6792 9.25777 16.3517C9.42103 16.5207 9.5848 16.6919 9.76706 16.8393C10.0973 17.1058 10.4107 17.11 10.7636 16.8768C11.0158 16.71 11.2088 16.4891 11.3635 16.2302C11.5162 15.9744 11.5653 15.7074 11.4565 15.4271C11.3322 15.1077 11.2129 14.7835 11.0599 14.4772C10.5494 13.4544 9.94326 12.4876 9.29191 11.5492C9.09721 11.2688 8.90519 10.9853 8.64795 10.7551C8.47864 10.6038 8.28511 10.5029 8.05023 10.5016C7.99743 10.5078 7.94413 10.5103 7.89218 10.5204C7.34725 10.6265 6.91699 10.9239 6.54827 11.3254C6.2848 11.6125 6.19233 11.9578 6.28144 12.3299C6.33524 12.5533 6.4405 12.7691 6.54525 12.9774V12.9779ZM14.1823 14.5258C13.464 14.4706 12.7595 14.3797 12.0638 14.1806C12.5119 14.7859 12.6186 15.4524 12.4624 16.1785C12.9045 15.4862 13.5377 15.0016 14.1823 14.5258Z" fill="#B5BEED" />
  </g>
  <defs>
    <clipPath id="clip0_1725_5980">
      <rect width="16" height="22.4415" fill="white" transform="translate(4 1)"/>
    </clipPath>
  </defs>
</svg>
