<svg width="24" height="24" viewBox="0 0 24 24" fill="none"
  xmlns="http://www.w3.org/2000/svg">
  <g clip-path="url(#clip0_3915_18390)">
    <path d="M8.86567 12.1791C8.86567 11.4426 8.86468 10.7049 8.86567 9.96836C8.86666 9.29948 9.12584 9.00663 9.71642 9.00663C10.2259 9.00663 10.7363 9.02438 11.2458 9.00331C12.2885 8.96005 12.8889 9.68328 13.0818 10.7227C13.1629 11.1597 13.1718 11.6167 13.1798 12.066C13.1946 12.9046 13.1847 13.7432 13.1837 14.5807C13.1837 14.9035 13.1273 14.9623 12.8345 14.9667C12.6782 14.9689 12.5219 14.9667 12.3656 14.9667C12.0085 14.9656 11.9778 14.9323 11.9778 14.5197C11.9768 13.7177 11.9887 12.9168 11.9729 12.1148C11.966 11.7598 11.9313 11.3993 11.8591 11.0543C11.7691 10.6306 11.5129 10.3755 11.1033 10.3655C10.8649 10.3588 10.6265 10.3655 10.3881 10.3566C10.1566 10.3488 10.0696 10.4664 10.0706 10.7249C10.0765 11.9961 10.0735 13.2673 10.0735 14.5385C10.0735 14.9245 10.0369 14.9656 9.69268 14.9656C9.52847 14.9656 9.36326 14.97 9.19905 14.9656C8.92503 14.9567 8.86963 14.8957 8.86864 14.584C8.86567 13.782 8.86864 12.9811 8.86765 12.1791H8.86567Z" fill="#B5BEED" />
    <path d="M0.00280421 11C0.00280421 10.4842 0.00181497 9.96838 0.00280421 9.45257C0.00379346 9.11535 0.0977715 9.01108 0.401469 9.00554C0.549855 9.00332 0.697252 8.99999 0.845638 9.00554C1.1068 9.01663 1.19781 9.11757 1.19781 9.41375C1.19979 10.3622 1.19781 11.3117 1.20078 12.2601C1.20078 12.4154 1.21265 12.5729 1.2354 12.726C1.29475 13.1398 1.49953 13.4126 1.86753 13.4592C2.32258 13.5169 2.78455 13.518 3.24356 13.5291C3.65509 13.5402 3.71741 13.6001 3.7184 14.0516C3.7184 14.2446 3.72136 14.4387 3.71642 14.6317C3.71048 14.8269 3.60661 14.9589 3.44141 14.9567C2.83401 14.9456 2.21673 14.9845 1.62318 14.8702C0.576564 14.6694 0.0245675 13.8053 0.00379346 12.4919C-0.00412048 11.995 0.00280421 11.4969 0.00280421 11Z" fill="#B5BEED" />
    <path d="M17.8805 14.9656C17.3938 15.0954 17.098 14.8425 16.8151 14.411C16.2918 13.6112 15.7111 12.8591 15.1551 12.086C14.9949 11.863 14.9988 11.69 15.1779 11.4725C15.7952 10.7216 16.4174 9.97725 17.0327 9.22295C17.1653 9.05989 17.3077 8.9889 17.5066 8.99999C17.7934 9.01663 18.0823 8.99777 18.3692 9.00998C18.4394 9.0133 18.5433 9.06211 18.566 9.1209C18.5878 9.17969 18.5453 9.29727 18.4988 9.35607C17.9369 10.0505 17.37 10.7415 16.8002 11.4293C16.5608 11.7188 16.548 11.8186 16.7745 12.137C17.3463 12.9423 17.924 13.7421 18.4938 14.5496C18.5542 14.635 18.5739 14.7548 18.6115 14.8591C18.5166 14.8946 18.4226 14.949 18.3247 14.9612C18.1782 14.9789 18.0289 14.9656 17.8815 14.9656H17.8805Z" fill="#B5BEED" />
    <path d="M6.86982 11.9839C6.86982 12.8403 6.86982 13.6955 6.86982 14.5518C6.86982 14.8735 6.79266 14.9601 6.50776 14.9656C6.32673 14.9689 6.14669 14.9667 5.96565 14.9656C5.77968 14.9645 5.67383 14.8691 5.67383 14.6484C5.67383 12.8724 5.67383 11.0965 5.67383 9.31946C5.67383 9.09983 5.7777 9.00443 5.96664 9.00554C6.15559 9.00554 6.34453 9.00221 6.53348 9.00554C6.79464 9.01108 6.86784 9.09206 6.86883 9.38823C6.8718 10.2535 6.86883 11.1187 6.86982 11.9839Z" fill="#B5BEED" />
    <path d="M22.2017 10.0804C21.7496 10.0804 21.2985 10.0837 20.8464 10.0804C20.5526 10.0782 20.4962 10.0128 20.4893 9.69772C20.4725 9.01775 20.4824 9.00665 21.0937 9.00665C21.9237 9.00665 22.7527 9.00665 23.5827 9.00665C23.9279 9.00665 23.9981 9.08874 24.0001 9.47476C24.0001 9.54797 24.0021 9.62229 24.0001 9.6955C23.9922 9.98169 23.918 10.0738 23.6568 10.0782C23.1721 10.0849 22.6874 10.0804 22.2027 10.0804H22.2017Z" fill="#B5BEED" />
    <path d="M22.2343 13.8907C22.7032 13.8907 23.1721 13.8885 23.641 13.8907C23.912 13.8918 23.9941 13.985 23.9991 14.2823C23.9991 14.3012 23.9991 14.3189 23.9991 14.3378C24.0011 14.9379 23.9783 14.9645 23.4501 14.9645C22.6023 14.9645 21.7555 14.9656 20.9077 14.9645C20.5545 14.9645 20.4912 14.8902 20.4893 14.4975C20.4893 14.4332 20.4893 14.3688 20.4893 14.3045C20.4942 13.9706 20.5575 13.8941 20.8523 13.8918C21.3133 13.8885 21.7743 13.8918 22.2343 13.8918V13.8907Z" fill="#B5BEED" />
    <path d="M22.2386 12.4764C21.7776 12.4764 21.3167 12.4786 20.8567 12.4764C20.5648 12.4742 20.4956 12.3943 20.4887 12.0671C20.4758 11.4259 20.4966 11.4026 21.0763 11.4026C21.9151 11.4026 22.755 11.4026 23.5939 11.4026C23.9273 11.4026 23.9975 11.4836 23.9985 11.8552C23.9985 11.9107 23.9985 11.9662 23.9985 12.0216C23.9945 12.4054 23.9322 12.4764 23.5959 12.4775C23.1438 12.4786 22.6907 12.4775 22.2386 12.4775V12.4764Z" fill="#B5BEED" />
  </g>
  <defs>
    <clipPath id="clip0_3915_18390">
      <rect width="24" height="6" fill="white" transform="translate(0 9)"/>
    </clipPath>
  </defs>
</svg>
