<svg width="24" height="24" viewBox="0 0 24 24" fill="none"
  xmlns="http://www.w3.org/2000/svg">
  <path fill-rule="evenodd" clip-rule="evenodd" d="M9.83537 15.2191L9.83511 15.2189L9.8354 15.2186L9.83541 15.2184L9.83554 15.2185L18.3635 7.41939C18.7378 7.08274 18.2818 6.91858 17.7849 7.22393L7.2597 13.9533L2.71339 12.5153C1.73159 12.2106 1.72454 11.5269 2.93382 11.0353L20.6497 4.11246C21.4589 3.74018 22.2398 4.30941 21.931 5.56445L18.9139 19.9726C18.7032 20.9965 18.0928 21.2414 17.247 20.7684L12.6511 17.3274L10.442 19.5043C10.4351 19.5111 10.4281 19.518 10.4212 19.5248C10.1742 19.7685 9.96976 19.9702 9.52245 19.9702L9.83537 15.2191Z" fill="#B5BEED" />
</svg>
