<svg width="24" height="24" viewBox="0 0 24 24" fill="none" xmlns="http://www.w3.org/2000/svg">
<path d="M22.7376 10.584L18.2165 2.94215C17.8667 2.36639 17.2208 2 16.5211 2H7.4789C6.77921 2 6.13333 2.36639 5.78349 2.94215L1.26239 10.5578C0.912538 11.1336 0.912538 11.8664 1.26239 12.4421L5.78349 20.0578C6.13333 20.6598 6.77921 21 7.4789 21H16.5211C17.2208 21 17.8667 20.6336 18.2165 20.0578L22.7376 12.4421C23.0875 11.8926 23.0875 11.1598 22.7376 10.584ZM12 18.0689V16.7603C16.7902 16.7603 19.2122 11.1074 15.8214 7.80992C12.4306 4.5124 6.61774 6.8416 6.61774 11.5262C6.61774 12.6777 6.9945 13.7769 7.7211 14.6928L8.68991 13.7769C8.23242 13.1226 7.9633 12.3375 7.9633 11.5262C7.9633 8.01928 12.3229 6.26584 14.8795 8.75206C17.4361 11.2383 15.633 15.478 12.0269 15.478V14.1694C14.422 14.1694 15.633 11.343 13.9107 9.69421C12.2153 8.04545 9.30887 9.22314 9.30887 11.5523C9.30887 12.0234 9.44342 12.4683 9.65872 12.8609L10.6544 11.9187C10.6275 11.814 10.6006 11.6832 10.6006 11.5785C10.6006 10.3747 12.0807 9.77273 12.9688 10.6364C13.83 11.4738 13.211 12.9394 12 12.9394C11.8654 12.9394 11.7309 12.9132 11.5963 12.887L8.12477 16.1061C8.09786 16.1322 8.04404 16.1584 8.01713 16.1846C8.01713 16.1846 7.99021 16.1846 7.99021 16.2107C7.9633 16.2369 7.93639 16.2369 7.90948 16.2631C7.88257 16.2631 7.88257 16.2631 7.85566 16.2893L7.77492 16.3154C7.74801 16.3154 7.74801 16.3154 7.7211 16.3154C7.69419 16.3154 7.66728 16.3154 7.64037 16.3154C7.61346 16.3154 7.58655 16.3154 7.55963 16.3154C7.53272 16.3154 7.50581 16.3154 7.50581 16.3154L7.42508 16.2893C7.39817 16.2893 7.39817 16.2893 7.37125 16.2631C7.34434 16.2631 7.31743 16.2369 7.29052 16.2107C7.26361 16.2107 7.26361 16.1846 7.2367 16.1846C7.20979 16.1584 7.18288 16.1322 7.18288 16.1322L7.15596 16.1061C2.04281 10.9766 7.82875 2.73278 14.6104 5.50689C21.392 8.28099 19.3468 18.0689 12 18.0689Z" fill="white"/>
</svg>
