<svg width="24" height="24" viewBox="0 0 24 24" fill="none"
  xmlns="http://www.w3.org/2000/svg">
  <g clip-path="url(#clip0_2227_7112)">
    <path fill-rule="evenodd" clip-rule="evenodd" d="M11.9999 1.99993C9.62356 1.99745 7.324 2.8629 5.51334 4.44118C3.70268 6.01946 2.49927 8.20741 2.11878 10.6129C1.73829 13.0185 2.2056 15.4843 3.43695 17.5686C4.66829 19.6529 6.5832 21.2194 8.83849 21.9873C9.33573 22.0818 9.51989 21.7607 9.51989 21.49C9.51989 21.2193 9.51989 20.6024 9.51989 19.7462C6.73904 20.3758 6.14972 18.3739 6.14972 18.3739C5.96442 17.7534 5.57077 17.2204 5.03861 16.8693C4.13622 16.2398 5.11227 16.2398 5.11227 16.2398C5.4286 16.2856 5.73061 16.4046 5.99544 16.5879C6.26027 16.7711 6.48097 17.0137 6.64082 17.2974C6.77665 17.5499 6.95977 17.7725 7.17968 17.9523C7.39959 18.1321 7.65196 18.2656 7.92231 18.3452C8.19266 18.4247 8.47566 18.4488 8.75508 18.4159C9.0345 18.383 9.30484 18.2938 9.55058 18.1535C9.5891 17.6357 9.80682 17.1489 10.1645 16.7812C7.94223 16.5231 5.60951 15.6417 5.60951 11.7135C5.59425 10.6955 5.96131 9.71055 6.63468 8.96247C6.33417 8.07747 6.36923 7.10894 6.7329 6.24922C6.7329 6.24922 7.5739 5.97222 9.48305 7.30052C11.1225 6.83892 12.8529 6.83892 14.4923 7.30052C16.4014 5.97222 17.2363 6.24922 17.2363 6.24922C17.6038 7.10771 17.641 8.07696 17.3406 8.96247C18.014 9.71055 18.3811 10.6955 18.3658 11.7135C18.3658 15.6543 16.0269 16.5168 13.7986 16.7497C14.0375 16.996 14.222 17.2921 14.3396 17.618C14.4572 17.9438 14.505 18.2918 14.48 18.6383C14.48 20.0106 14.48 21.1186 14.48 21.4522C14.48 21.7859 14.658 22.044 15.1675 21.9496C17.4157 21.1744 19.3223 19.6054 20.5472 17.5225C21.7721 15.4396 22.2356 12.9782 21.8551 10.5773C21.4746 8.17647 20.2749 5.99229 18.4698 4.41436C16.6648 2.83643 14.3718 1.96736 11.9999 1.96216V1.99993Z" fill="#B5BEED" />
  </g>
  <defs>
    <clipPath id="clip0_2227_7112">
      <rect width="20" height="20" fill="white" transform="translate(2 2)"/>
    </clipPath>
  </defs>
</svg>
