<svg width="25" height="24" viewBox="0 0 25 24" xmlns="http://www.w3.org/2000/svg">
<path fill-rule="evenodd" clip-rule="evenodd" d="M4.82642 4C4.27413 4 3.82642 4.44219 3.82642 4.98765V5.9753C3.82642 6.52076 4.27413 6.96295 4.82642 6.96295H19.8264C20.3787 6.96295 20.8264 6.52076 20.8264 5.9753V4.98765C20.8264 4.44219 20.3787 4 19.8264 4H4.82642ZM4.82642 8.34568C4.27413 8.34568 3.82642 8.78787 3.82642 9.33333V10.321C3.82642 10.8664 4.27413 11.3086 4.82642 11.3086H19.8264C20.3787 11.3086 20.8264 10.8664 20.8264 10.321V9.33333C20.8264 8.78787 20.3787 8.34568 19.8264 8.34568H4.82642ZM3.82642 13.679C3.82642 13.1336 4.27413 12.6914 4.82642 12.6914H16.8264C17.3787 12.6914 17.8264 13.1336 17.8264 13.679V14.6667C17.8264 15.2121 17.3787 15.6543 16.8264 15.6543H4.82642C4.27413 15.6543 3.82642 15.2121 3.82642 14.6667V13.679ZM4.82642 17.0371C4.27413 17.0371 3.82642 17.4792 3.82642 18.0247V19.0124C3.82642 19.5578 4.27413 20 4.82642 20H19.8264C20.3787 20 20.8264 19.5578 20.8264 19.0124V18.0247C20.8264 17.4792 20.3787 17.0371 19.8264 17.0371H4.82642Z" />
</svg>
