<svg width="24" height="24" viewBox="0 0 24 24" fill="none"
  xmlns="http://www.w3.org/2000/svg">
  <path fill-rule="evenodd" clip-rule="evenodd" d="M6 4a2 2 0 0 0-2 2v12a2 2 0 0 0 2 2h12a2 2 0 0 0 2-2V6a2 2 0 0 0-2-2H6Zm1 3.4c0-.22.18-.4.4-.4h6.2c.22 0 .4.18.4.4v1.2a.4.4 0 0 1-.4.4H7.4a.4.4 0 0 1-.4-.4V7.4Zm0 4c0-.22.18-.4.4-.4h6.2c.22 0 .4.18.4.4v1.2a.4.4 0 0 1-.4.4H7.4a.4.4 0 0 1-.4-.4v-1.2Zm.4 3.6a.4.4 0 0 0-.4.4v1.2c0 .22.18.4.4.4h6.2a.4.4 0 0 0 .4-.4v-1.2a.4.4 0 0 0-.4-.4H7.4Zm7.6.4c0-.22.18-.4.4-.4h1.2c.22 0 .4.18.4.4v1.2a.4.4 0 0 1-.4.4h-1.2a.4.4 0 0 1-.4-.4v-1.2Zm.4-8.4a.4.4 0 0 0-.4.4v1.2c0 .22.18.4.4.4h1.2a.4.4 0 0 0 .4-.4V7.4a.4.4 0 0 0-.4-.4h-1.2Zm-.4 4.4c0-.22.18-.4.4-.4h1.2c.22 0 .4.18.4.4v1.2a.4.4 0 0 1-.4.4h-1.2a.4.4 0 0 1-.4-.4v-1.2Z" />
</svg>
